<?xml version="1.0" standalone="no"?>
<!DOCTYPE svg PUBLIC "-//W3C//DTD SVG 1.1//EN" "http://www.w3.org/Graphics/SVG/1.1/DTD/svg11.dtd" >
<svg xmlns="http://www.w3.org/2000/svg">
<metadata></metadata>
<defs>
<font id="ImparaRegular" horiz-adv-x="1179" >
<font-face units-per-em="2048" ascent="1567" descent="-481" />
<missing-glyph horiz-adv-x="450" />
<glyph unicode="&#xfb01;" horiz-adv-x="1150" d="M43 909v105l168 35v71q0 214 76 305q104 125 291 125q98 0 170 -16l-19 -137q-91 14 -133 14q-59 0 -97.5 -14t-60.5 -51q-32 -57 -32 -224v-78h591v-1044h-194v909h-397v-909h-195v909h-168zM786 1354q0 60 31 90.5t88 30.5q111 0 111 -119q0 -121 -117 -121 q-113 0 -113 119z" />
<glyph unicode="&#xfb02;" horiz-adv-x="1150" d="M43 909v105l168 35v71q0 207 82 305q104 125 321 125q198 0 383 -30v-1520h-194v1403q-71 10 -164 10q-86 0 -130 -15.5t-67 -54.5q-36 -59 -36 -221v-78h253v-135h-253v-909h-195v909h-168z" />
<glyph unicode="&#xfb03;" horiz-adv-x="1744" d="M49 909v105l168 35v34q0 206 76 301q100 123 293 123q82 0 196 -14l-20 -139q-96 14 -139 14q-72 0 -113.5 -13.5t-63.5 -49.5q-36 -62 -36 -218v-43h399v76q0 213 74 305q98 125 293 125q95 0 161 -14l-20 -139q-82 14 -135 14q-49 0 -82.5 -13.5t-52 -34t-28.5 -60.5 t-12.5 -78.5t-2.5 -102.5v-78h587v-1044h-194v909h-393v-909h-195v909h-399v-909h-193v909h-168zM1380 1354q0 60 31 90.5t88 30.5q111 0 111 -119q0 -121 -117 -121q-113 0 -113 119z" />
<glyph unicode="&#xfb04;" horiz-adv-x="1744" d="M49 909v105l168 35v34q0 206 76 301q100 123 293 123q123 0 192 -14l-16 -137q-105 12 -139 12q-70 0 -112.5 -13.5t-64.5 -49.5q-36 -62 -36 -218v-43h399v76q0 219 97 324.5t300 105.5q200 0 385 -30v-1520h-194v1405q-69 10 -168 10q-84 0 -125 -15t-64 -54 q-36 -59 -36 -224v-78h253v-135h-253v-909h-195v909h-399v-909h-193v909h-168z" />
<glyph horiz-adv-x="0" />
<glyph horiz-adv-x="2048" />
<glyph unicode=" "  horiz-adv-x="450" />
<glyph unicode="&#x09;" horiz-adv-x="450" />
<glyph unicode="&#xa0;" horiz-adv-x="450" />
<glyph unicode="!" horiz-adv-x="575" d="M184 113q0 66 33.5 98.5t93.5 32.5q119 0 119 -127q0 -129 -123 -129q-62 0 -92.5 29.5t-30.5 95.5zM195 1446h227q0 -63 -41 -1016h-145q-41 951 -41 1016z" />
<glyph unicode="&#x22;" horiz-adv-x="745" d="M102 1487h193l-49 -576h-94zM451 1487h194l-47 -576h-96z" />
<glyph unicode="#" horiz-adv-x="1282" d="M88 444v164h305l31 211h-285v164h307l62 430h100l-61 -430h278l62 430h100l-61 -430h268v-164h-291l-31 -211h275v-164h-297l-66 -464h-100l66 464h-279l-65 -464h-101l66 464h-283zM494 608h278l31 211h-279z" />
<glyph unicode="$" horiz-adv-x="1101" d="M84 80l55 147q202 -93 371 -96v492l-70 32q-155 69 -225 153.5t-70 213.5q0 147 98.5 246.5t266.5 122.5v184h100v-178q179 -3 340 -51l-39 -154q-174 52 -301 57v-448l45 -21q195 -88 272 -171t77 -216q0 -153 -101.5 -263t-292.5 -138v-187h-100v179h-21 q-104 0 -214.5 27.5t-190.5 68.5zM338 1055q0 -122 172 -207v395q-172 -26 -172 -188zM610 137q189 35 189 228q0 63 -46 113t-143 97v-438z" />
<glyph unicode="%" horiz-adv-x="1746" d="M63 952q0 457 340 457q164 0 240 -101.5t76 -340.5q0 -234 -88.5 -344.5t-249.5 -110.5q-156 0 -237 103t-81 337zM209 958q0 -184 46.5 -264t145.5 -80q97 0 134.5 81.5t37.5 267.5q0 192 -43 269t-143 77q-93 0 -135.5 -81.5t-42.5 -269.5zM483 18l676 1389l96 -39 l-673 -1388zM1030 420q0 454 338 454q164 0 239.5 -101t75.5 -341q0 -455 -337 -455q-156 0 -236 103.5t-80 339.5zM1174 424q0 -184 46.5 -264t145.5 -80q98 0 136 81t38 267q0 192 -43.5 270t-144.5 78q-92 0 -135 -82t-43 -270z" />
<glyph unicode="&#x26;" horiz-adv-x="1648" d="M94 397q0 80 28.5 146t78.5 111t111 74.5t134 45.5q-140 26 -208 109t-68 194q0 97 39 172t108.5 121.5t160.5 70t200 23.5q187 0 323 -51l-38 -141q-146 47 -316 47q-153 0 -217.5 -59t-64.5 -179q0 -121 83 -184.5t238 -65.5v-131q-216 -9 -301.5 -73.5t-85.5 -212.5 q0 -76 34 -136t90 -94t120.5 -51.5t132.5 -17.5q72 0 135.5 11.5t122.5 39t100.5 69t66.5 106t25 146.5q0 86 -24 146q-115 -8 -295 -8v141q304 3 474 44.5t273 121.5l91 -133q-119 -108 -388 -150q41 -90 41 -168q0 -111 -37 -200t-97.5 -146t-143 -95t-169 -53.5 t-179.5 -15.5q-95 0 -179 15t-158 47.5t-127 81.5t-83.5 121t-30.5 161z" />
<glyph unicode="'" horiz-adv-x="397" d="M102 1487h193l-49 -576h-94z" />
<glyph unicode="(" horiz-adv-x="655" d="M100 592q0 182 37.5 339t105.5 273.5t152.5 202.5t188.5 145l53 -77q-88 -76 -147 -150t-105.5 -176.5t-68 -238.5t-21.5 -316q0 -148 18 -274.5t47.5 -220.5t74 -174.5t92.5 -138t108 -110.5l-55 -82q-98 52 -183 142t-152.5 214t-106 289.5t-38.5 352.5z" />
<glyph unicode=")" horiz-adv-x="655" d="M20 -326q88 75 146.5 149.5t104.5 177t67.5 238.5t21.5 316q0 184 -25.5 332.5t-73.5 256.5t-105 185t-133 144l53 79q98 -51 183 -140.5t152 -213t105.5 -289t38.5 -352.5q0 -182 -37.5 -339t-105 -274.5t-151.5 -203.5t-187 -146z" />
<glyph unicode="*" horiz-adv-x="862" d="M45 1118l45 137q39 -11 82.5 -27t67.5 -26t76 -33.5t67 -29.5q-3 26 -11 96t-12 120t-4 97h148q0 -47 -3.5 -99t-10.5 -119t-9 -97q149 70 293 118l45 -141q-47 -15 -309 -76q147 -156 205 -237l-119 -86q-43 60 -168 266q-124 -209 -166 -266l-121 84q65 90 207 241 q-217 51 -303 78z" />
<glyph unicode="+" horiz-adv-x="1497" d="M193 555v150h477v479h157v-479h478v-150h-478v-481h-155v481h-479z" />
<glyph unicode="," horiz-adv-x="438" d="M37 -264q51 106 73.5 235.5t22.5 319.5h203q0 -120 -35.5 -243.5t-77 -203t-88.5 -143.5z" />
<glyph unicode="-" horiz-adv-x="718" d="M80 532v166h559v-166h-559z" />
<glyph unicode="." horiz-adv-x="438" d="M96 115q0 129 129 129q119 0 119 -127q0 -64 -32.5 -97.5t-92.5 -33.5q-123 0 -123 129z" />
<glyph unicode="/" horiz-adv-x="788" d="M-14 -84l690 1591l115 -45l-689 -1591z" />
<glyph unicode="0" d="M88 674q0 160 27 287t73 211t111 139.5t138.5 79.5t158.5 24q126 0 215.5 -34.5t154 -113.5t95.5 -211.5t31 -324.5q0 -202 -34.5 -349t-101.5 -236t-158.5 -131t-211.5 -42q-121 0 -211 37t-155.5 118.5t-98.5 218t-33 327.5zM289 698q0 -589 307 -589q111 0 174.5 56 t92 181.5t28.5 345.5q0 310 -70.5 449t-228.5 139t-230.5 -136.5t-72.5 -445.5z" />
<glyph unicode="1" d="M207 1157q224 130 371 227h167v-1384h-198v1192q-136 -74 -293 -148z" />
<glyph unicode="2" d="M86 0v125q357 287 551 506q90 101 126 190t36 185q0 112 -74 180.5t-215 68.5q-153 0 -322 -61l-38 127q222 94 399 94q230 0 344.5 -105t114.5 -294q0 -225 -160 -406q-172 -197 -529 -448q217 2 730 2l-29 -164h-934z" />
<glyph unicode="3" d="M106 41l48 135q161 -57 352 -57q86 0 147.5 22t94.5 61t48 84t15 99q0 63 -16.5 107.5t-60.5 81.5t-129.5 55.5t-213.5 19.5v139q117 1 197.5 22.5t121.5 59.5t57.5 79.5t16.5 94.5q0 220 -258 220q-164 0 -327 -50l-39 123q95 36 204 57t187 21q432 0 432 -358 q0 -120 -81 -205t-210 -117q143 -19 234.5 -104t91.5 -240q0 -206 -140.5 -313t-365.5 -107q-196 0 -406 70z" />
<glyph unicode="4" d="M86 356v125l612 903h205v-884h227l-28 -144h-199v-356h-196v356h-621zM256 500h451q0 467 4 688q-111 -189 -455 -688z" />
<glyph unicode="5" d="M127 39l39 133q163 -49 342 -49q170 0 248 81.5t78 237.5q0 84 -24.5 142.5t-69.5 88t-96 42t-116 12.5q-154 0 -335 -43l75 700h705l-25 -157h-559l-45 -383q121 33 254 33q216 0 325 -102t109 -326q0 -123 -41 -216.5t-113 -149.5t-163 -84t-199 -28q-78 0 -188.5 18 t-200.5 50z" />
<glyph unicode="6" d="M125 645q0 170 34.5 305t92 222t137.5 144t166.5 81t183.5 24q128 0 265 -37l-33 -133q-123 27 -226 27q-193 0 -298.5 -125.5t-129.5 -402.5q46 60 148.5 103.5t200.5 43.5q419 0 419 -448q0 -224 -124 -350t-353 -126q-81 0 -149.5 19t-131.5 67t-106.5 122.5 t-69.5 192.5t-26 271zM330 502q0 -73 16 -141.5t48.5 -127.5t90 -95t131.5 -36q279 0 279 349q0 156 -64 233.5t-202 77.5q-75 0 -149 -31t-111 -74q-26 -29 -32.5 -58.5t-6.5 -96.5z" />
<glyph unicode="7" d="M102 1223l29 161h895v-133q-321 -756 -514 -1282l-188 33q125 327 250 606.5t286 614.5h-758z" />
<glyph unicode="8" d="M113 367q0 126 77.5 222.5t208.5 133.5q-111 37 -176 119t-65 202q0 170 118 270.5t324 100.5q430 0 430 -356q0 -113 -68 -198t-174 -124q119 -29 199 -123.5t80 -224.5q0 -190 -127.5 -303t-357.5 -113q-228 0 -348.5 102t-120.5 292zM313 381q0 -135 79.5 -206 t205.5 -71q144 0 208 69.5t64 207.5q0 134 -82 203t-204 69q-120 0 -195.5 -68.5t-75.5 -203.5zM348 1032q0 -112 71 -173.5t179 -61.5q99 0 168.5 59.5t69.5 179.5q0 110 -58 179t-190 69q-70 0 -119 -19.5t-74.5 -56.5t-36 -79t-10.5 -97z" />
<glyph unicode="9" d="M94 940q0 225 123.5 350t353.5 125q81 0 149 -19t131.5 -66.5t107.5 -122t70 -193t26 -271.5q0 -170 -34.5 -305t-92 -221.5t-138 -143.5t-167 -80.5t-183.5 -23.5q-145 0 -264 37l33 133q116 -26 225 -26q192 0 298 124.5t130 401.5q-46 -60 -148 -103.5t-200 -43.5 q-420 0 -420 448zM285 940q0 -156 64 -233.5t200 -77.5q77 0 151.5 30t110.5 72q26 30 32.5 60t6.5 98q0 73 -16.5 141t-49 126.5t-90 94t-131.5 35.5q-278 0 -278 -346z" />
<glyph unicode=":" horiz-adv-x="483" d="M139 115q0 65 33.5 97t95.5 32q119 0 119 -127q0 -64 -32.5 -97.5t-92.5 -33.5q-123 0 -123 129zM139 922q0 131 129 131q119 0 119 -127q0 -131 -125 -131q-123 0 -123 127z" />
<glyph unicode=";" horiz-adv-x="483" d="M80 -264q52 107 75 236.5t23 318.5h201q0 -172 -61 -327t-138 -263zM139 922q0 131 129 131q119 0 119 -127q0 -131 -125 -131q-123 0 -123 127z" />
<glyph unicode="&#x3c;" horiz-adv-x="1497" d="M229 541v172l981 479v-176l-825 -387l825 -379v-180z" />
<glyph unicode="=" horiz-adv-x="1497" d="M195 348v154h1108v-154h-1108zM195 752v151h1108v-151h-1108z" />
<glyph unicode="&#x3e;" horiz-adv-x="1497" d="M287 70v176l825 387l-825 379v180l981 -469v-174z" />
<glyph unicode="?" horiz-adv-x="888" d="M53 1391q89 30 188.5 46.5t168.5 16.5q188 0 297.5 -81t109.5 -249q0 -115 -53 -212.5t-191 -204.5q-81 -64 -109 -125t-30 -150h-145q-2 39 -2 86q3 78 31.5 135t105.5 115q103 80 145.5 155.5t42.5 161.5q0 110 -64.5 165t-172.5 55q-138 0 -287 -43zM236 115 q0 64 34.5 96.5t94.5 32.5q118 0 118 -127q0 -64 -32.5 -97.5t-92.5 -33.5q-122 0 -122 129z" />
<glyph unicode="@" horiz-adv-x="1714" d="M121 479q0 186 63 346.5t174 274t267.5 178.5t337.5 65q295 0 469 -166.5t174 -451.5q0 -151 -62.5 -288t-165 -219.5t-213.5 -82.5q-140 0 -164 137q-4 23 -4 82q-76 -102 -163.5 -163.5t-176.5 -61.5t-137.5 56.5t-48.5 170.5q0 76 19.5 160t60 166.5t96.5 148.5 t136.5 107t172.5 41q39 0 95 -9t84 -20l26 49l117 -10q-28 -88 -59 -225l-52 -236q-26 -123 -26 -174q0 -61 14.5 -84.5t56.5 -23.5q64 0 125 65t99.5 175.5t38.5 232.5q0 242 -135.5 385t-381.5 143q-147 0 -275 -56.5t-220.5 -156.5t-145.5 -243.5t-53 -311.5 q0 -283 173 -453.5t456 -170.5q163 0 290.5 33t264.5 98l41 -84q-126 -73 -288 -116.5t-333 -43.5q-223 0 -393 92.5t-262 260t-92 384.5zM635 389q0 -133 94 -133q65 0 139 61.5t109 126.5q37 64 57 150l29 143q10 51 10 84q0 28 -22 39q-40 21 -101 21q-95 0 -141 -39 q-82 -66 -128 -202.5t-46 -250.5z" />
<glyph unicode="A" horiz-adv-x="1329" d="M18 6l547 1440h228l514 -1440l-215 -12l-156 440h-565l-170 -440zM420 580h467q-112 317 -225 669q-30 -97 -242 -669z" />
<glyph unicode="B" horiz-adv-x="1292" d="M182 6v1428q226 20 381 20q110 0 192.5 -9t154 -32t116.5 -60.5t70.5 -97t25.5 -139.5q0 -130 -69 -218t-187 -124q146 -20 237 -108t91 -236q0 -71 -18.5 -133.5t-62.5 -119.5t-111 -97t-169.5 -64t-232.5 -24q-210 0 -418 14zM383 152q83 -9 233 -9q199 0 284 64 t85 223q0 250 -389 250q-147 0 -213 -2v-526zM383 827q66 -2 164 -2q60 0 104 3.5t88.5 13t74.5 28t54 46.5t35.5 70.5t11.5 98.5q0 124 -87.5 174t-254.5 50q-91 0 -190 -6v-476z" />
<glyph unicode="C" horiz-adv-x="1273" d="M100 690q0 384 181 585.5t495 201.5q187 0 412 -54l-37 -159q-184 57 -379 57q-467 0 -467 -586q0 -301 121 -455.5t348 -154.5q100 0 206.5 31t190.5 75l58 -125q-124 -67 -253 -101t-233 -34q-145 0 -259.5 38.5t-202 121.5t-134.5 224t-47 335z" />
<glyph unicode="D" horiz-adv-x="1439" d="M182 6v1430q254 18 391 18q250 0 392 -43q376 -113 376 -635q0 -575 -389 -719q-177 -65 -426 -65q-120 0 -344 14zM383 154q94 -11 209 -11q234 0 356 80q182 124 182 539q0 379 -225 493q-108 54 -327 54q-67 0 -195 -9v-1146z" />
<glyph unicode="E" horiz-adv-x="1142" d="M182 0v1446h836l-25 -152h-610v-469h582v-149h-582v-524h704l-24 -152h-881z" />
<glyph unicode="F" horiz-adv-x="1064" d="M182 0v1446h832l-27 -152h-604v-489h561v-154h-561v-651h-201z" />
<glyph unicode="G" horiz-adv-x="1423" d="M100 698q0 194 51 343.5t145 244.5t223 143t288 48q182 0 405 -58l-34 -157q-184 57 -381 57q-244 0 -367 -145t-123 -455q0 -307 123.5 -453.5t345.5 -146.5q166 0 273 67q32 21 32 93v317h-344v149h535v-745h-142l-26 76q-164 -105 -367 -105q-115 0 -210.5 24.5 t-175.5 79.5t-135 138.5t-85.5 206.5t-30.5 278z" />
<glyph unicode="H" horiz-adv-x="1484" d="M182 0v1446h201v-621h719v621h203v-1446h-203v676h-719v-676h-201z" />
<glyph unicode="I" horiz-adv-x="565" d="M182 0v1446h201v-1446h-201z" />
<glyph unicode="J" horiz-adv-x="849" d="M8 8l33 146q111 -27 225 -27q60 0 109.5 20t73.5 60q23 36 28.5 93t5.5 179v967h201v-971q0 -232 -55 -334q-43 -80 -136.5 -125t-224.5 -45q-138 0 -260 37z" />
<glyph unicode="K" horiz-adv-x="1280" d="M182 0v1446h201v-674q47 16 88 57l584 631l205 -33q-500 -523 -644 -657q167 -182 662 -760l-231 -26l-592 684q-33 39 -72 59v-727h-201z" />
<glyph unicode="L" horiz-adv-x="1030" d="M182 0v1446h201v-1294h627l-27 -152h-801z" />
<glyph unicode="M" horiz-adv-x="1771" d="M150 4l65 1442h270q195 -560 263.5 -765t136.5 -429q112 359 395 1194h274l68 -1440l-203 -12q-13 328 -25 602.5t-17.5 405.5t-8.5 237q-51 -182 -125.5 -409t-281.5 -830h-179q-342 1009 -415 1243q-8 -388 -45 -1247z" />
<glyph unicode="N" horiz-adv-x="1501" d="M182 0v1446h250q612 -969 725 -1165q-8 276 -8 1165h170v-1446h-205q-157 252 -314 503t-224 358t-126.5 204t-97.5 162q6 -219 6 -1227h-176z" />
<glyph unicode="O" horiz-adv-x="1492" d="M100 705q0 202 49.5 353t140 241.5t210 134t268.5 43.5q315 0 470 -170.5t155 -546.5q0 -789 -668 -789q-309 0 -467 178t-158 556zM305 760q0 -324 113 -484.5t315 -160.5q227 0 339 135.5t112 449.5q0 315 -103 474t-323 159q-218 0 -335.5 -136t-117.5 -437z" />
<glyph unicode="P" horiz-adv-x="1257" d="M182 0v1438q222 14 445 14q113 0 200.5 -14t146 -41t98 -61t60 -81t29 -92.5t8.5 -103.5q0 -107 -30 -188t-82.5 -133t-131.5 -84.5t-167.5 -45.5t-200.5 -14q-96 0 -174 4v-598h-201zM383 750q76 -5 168 -5q230 0 320 65t90 234q0 57 -17 100.5t-56 79.5t-109.5 55 t-170.5 19q-117 0 -225 -6v-542z" />
<glyph unicode="Q" horiz-adv-x="1492" d="M100 705q0 202 49.5 353t140 241.5t210 134t268.5 43.5q315 0 470 -170.5t155 -546.5q0 -631 -428 -758q10 -4 61.5 -26.5t102 -41.5t122.5 -42t159 -38t175 -18l-51 -158q-135 3 -289 44t-252.5 83.5t-222 102t-147.5 69.5q-260 31 -391.5 207.5t-131.5 520.5zM305 760 q0 -324 113 -484.5t315 -160.5q227 0 339 135.5t112 449.5q0 315 -103 474t-323 159q-218 0 -335.5 -136t-117.5 -437z" />
<glyph unicode="R" horiz-adv-x="1284" d="M182 0v1438q233 14 379 14q296 0 424.5 -91.5t128.5 -277.5q0 -276 -293 -374q63 -25 106 -60.5t93.5 -119t109.5 -228.5q68 -163 136 -293l-209 -14q-30 53 -101 219q-61 147 -107 228.5t-76 111.5t-73 51q-62 33 -198 33q-29 0 -119 -4v-633h-201zM383 780 q35 -2 102 -2q85 0 146 6.5t115 24.5t87 49t51.5 80.5t18.5 118.5q0 117 -78 182.5t-260 65.5q-35 0 -182 -5v-520z" />
<glyph unicode="S" horiz-adv-x="1071" d="M43 76l63 153q201 -98 398 -98q297 0 297 248q0 75 -59.5 132.5t-186.5 113.5l-135 61q-162 72 -235.5 162.5t-73.5 228.5q0 179 130 289.5t343 110.5q190 0 368 -56l-45 -159q-188 57 -342 57q-252 0 -252 -207q0 -142 195 -231l137 -64q205 -93 283 -178.5t78 -228.5 q0 -90 -33 -168.5t-97 -139.5t-169 -96t-238 -35q-110 0 -227 29.5t-199 75.5z" />
<glyph unicode="T" horiz-adv-x="1185" d="M35 1292l24 154h1080v-154h-451v-1292h-203v1292h-450z" />
<glyph unicode="U" horiz-adv-x="1462" d="M172 584v862h203v-860q0 -213 35 -299q30 -77 118.5 -122.5t214.5 -45.5q170 0 271 88q55 48 77.5 130t22.5 241v868h176v-858q0 -159 -14 -248t-51 -156q-56 -102 -193 -158.5t-315 -56.5q-171 0 -303 57t-189 177q-53 113 -53 381z" />
<glyph unicode="V" horiz-adv-x="1316" d="M23 1440l215 12q213 -612 291.5 -845.5t121.5 -387.5q107 332 453 1233l188 -12l-559 -1440h-201z" />
<glyph unicode="W" horiz-adv-x="1884" d="M14 1438l205 14q40 -167 75 -316.5t56.5 -244t46.5 -210.5t34 -160t31 -152t27 -131q94 367 361 1208h203q254 -857 338 -1208q128 549 299 1214l182 -12l-383 -1440h-203q-269 887 -346 1196q-95 -354 -371 -1196h-202z" />
<glyph unicode="X" horiz-adv-x="1347" d="M31 6l518 752l-463 682l242 12q202 -291 364 -547q97 159 361 547l202 -12l-460 -672l526 -762l-240 -12q-333 475 -426 618q-92 -148 -419 -618z" />
<glyph unicode="Y" horiz-adv-x="1273" d="M14 1438l236 16q198 -332 276 -466.5t125 -227.5q109 195 414 694l197 -16l-531 -856v-582h-203v582z" />
<glyph unicode="Z" horiz-adv-x="1224" d="M51 0v137q607 816 869 1157h-807l28 152h1016v-137q-750 -1009 -864 -1157h876v-152h-1118z" />
<glyph unicode="[" horiz-adv-x="624" d="M156 -360v1869h428v-102h-250v-1665h250v-102h-428z" />
<glyph unicode="\" horiz-adv-x="788" d="M-14 1462l116 45l689 -1591l-115 -45z" />
<glyph unicode="]" horiz-adv-x="624" d="M41 -258h248v1665h-248v102h428v-1869h-428v102z" />
<glyph unicode="^" horiz-adv-x="1497" d="M246 604l418 842h172l415 -842h-172l-334 678l-329 -678h-170z" />
<glyph unicode="_" horiz-adv-x="1073" d="M0 -160h1073v-112h-1073v112z" />
<glyph unicode="`" horiz-adv-x="430" d="M16 1487l168 82l236 -350l-88 -50z" />
<glyph unicode="a" horiz-adv-x="1048" d="M74 293q0 102 52 162t167 88q163 39 418 53v109q0 111 -41 155q-29 30 -62 40.5t-94 10.5q-128 0 -330 -63l-32 121q97 41 220.5 68.5t205.5 27.5q86 0 138 -13.5t93 -47.5q50 -40 71 -108t21 -191q0 -41 -2 -209t-2 -220q0 -77 28.5 -127.5t78.5 -93.5l-127 -80 q-52 16 -90.5 56t-53.5 82q-100 -70 -182.5 -103t-169.5 -33q-141 0 -224 93.5t-83 222.5zM262 303q0 -82 51 -134t131 -52q121 0 215 57q31 22 41.5 41t10.5 66v204q-266 -17 -369 -61q-80 -33 -80 -121z" />
<glyph unicode="b" horiz-adv-x="1171" d="M152 0q4 186 4 524v1004h194v-596q70 55 179 97t200 42q186 0 273.5 -127t87.5 -405q0 -141 -35 -249.5t-95.5 -174t-137.5 -98.5t-167 -33q-189 0 -323 88q0 -2 -9 -41.5t-10 -42.5zM350 365q0 -71 6.5 -106t26.5 -58q28 -29 102.5 -54.5t135.5 -25.5q67 0 112.5 16 t82 57.5t54 121.5t17.5 202q0 212 -63 311t-173 99q-81 0 -162 -30.5t-108 -72.5q-17 -26 -23 -58t-8 -97v-305z" />
<glyph unicode="c" horiz-adv-x="933" d="M82 504q0 271 139.5 419t366.5 148q150 0 293 -41l-37 -153q-137 45 -254 45q-172 0 -240.5 -91.5t-68.5 -302.5q0 -399 315 -399q121 0 272 68l41 -99q-71 -48 -174.5 -85.5t-193.5 -37.5q-216 0 -337.5 138t-121.5 391z" />
<glyph unicode="d" horiz-adv-x="1183" d="M82 512q0 117 27.5 212t74 158.5t110 106t133 61.5t146.5 19q149 0 252 -43v502h195v-1149q0 -243 16 -371l-176 -16q-23 70 -31 129q-77 -74 -160.5 -109t-189.5 -35q-176 0 -286.5 137t-110.5 398zM281 539q0 -114 24 -198t65.5 -129.5t89 -67t101.5 -21.5 q64 0 131 26.5t96 63.5q23 29 30 63t7 121v353q0 110 -37 137q-30 21 -90.5 35t-122.5 14q-69 0 -120 -18.5t-91.5 -62t-61.5 -123t-21 -193.5z" />
<glyph unicode="e" horiz-adv-x="1071" d="M82 518q0 114 27.5 208t74.5 157t111 106t134.5 62.5t148.5 19.5q258 0 352 -186q34 -66 49 -140.5t16 -201.5l-721 -17q1 -197 87 -296t245 -99q166 0 338 78l43 -103q-87 -51 -202.5 -91t-229.5 -40q-228 0 -350.5 141t-122.5 402zM279 631l528 33q-16 280 -256 280 q-51 0 -95.5 -16.5t-83.5 -52t-64 -98t-29 -146.5z" />
<glyph unicode="f" horiz-adv-x="659" d="M49 909v105l162 35v71q0 214 76 305q104 125 288 125q120 0 195 -16l-18 -139q-90 16 -148 16q-124 0 -166 -65q-32 -50 -32 -224v-78h253v-135h-253v-909h-195v909h-162z" />
<glyph unicode="g" horiz-adv-x="1038" d="M53 -201q0 126 230 254q-73 26 -110.5 70.5t-37.5 93.5q0 40 39 82t139 111q-90 32 -144 111t-54 190q0 162 115.5 263t291.5 101q104 0 185 -31l323 -12v-114l-184 -7q63 -71 63 -186q0 -154 -118.5 -252t-307.5 -98q-59 0 -114.5 -37t-55.5 -70q0 -73 156 -75 q21 0 62 -1q83 -1 123 -2.5t105.5 -7t96.5 -15.5t73 -28.5t60.5 -45.5t32.5 -67.5t14 -93.5q0 -76 -37.5 -147t-104.5 -127.5t-171 -90.5t-227 -34q-206 0 -324.5 73.5t-118.5 192.5zM233 -166q0 -73 83 -119.5t214 -46.5q145 0 228.5 60t83.5 163q0 84 -80 109 q-79 25 -303 25q-50 0 -86 -19q-75 -40 -107.5 -86t-32.5 -86zM301 737q0 -111 54 -176t155 -65q100 0 157.5 53t57.5 158q0 112 -55.5 179.5t-155.5 67.5q-103 0 -158 -56.5t-55 -160.5z" />
<glyph unicode="h" horiz-adv-x="1163" d="M152 0v1528h194v-598q85 61 205 100t205 39q101 0 159.5 -36.5t83.5 -125.5q19 -62 19 -256v-651h-193v623v27q0 67 -1.5 97t-10 70.5t-27.5 56.5t-54 28.5t-89 12.5q-60 0 -143.5 -26.5t-116.5 -59.5q-25 -23 -31 -55t-6 -115v-659h-194z" />
<glyph unicode="i" horiz-adv-x="499" d="M135 1354q0 60 30.5 90.5t88.5 30.5q111 0 111 -119q0 -121 -115 -121t-115 119zM152 0v1044h194v-1044h-194z" />
<glyph unicode="j" horiz-adv-x="501" d="M-154 -428l19 125q45 -4 115 -4q57 0 92.5 14t53.5 47.5t24 75t6 111.5v1103h194v-1067q0 -119 -15.5 -191t-51.5 -116q-86 -112 -279 -112q-79 0 -158 14zM139 1354q0 60 30.5 90.5t88.5 30.5q109 0 109 -119q0 -121 -115 -121q-113 0 -113 119z" />
<glyph unicode="k" horiz-adv-x="1044" d="M152 0v1528h194v-934q47 16 82 51l391 412l197 -27q-339 -339 -449 -438q136 -157 477 -578l-217 -26l-419 510q-27 34 -62 55v-553h-194z" />
<glyph unicode="l" horiz-adv-x="499" d="M152 0v1528h194v-1528h-194z" />
<glyph unicode="m" horiz-adv-x="1822" d="M150 1036l176 17q19 -79 26 -135q84 65 198 108t200 43q101 0 161.5 -35.5t87.5 -118.5q82 65 202.5 109.5t207.5 44.5q102 0 163.5 -36.5t88.5 -125.5q18 -66 18 -256v-651h-194v625v32v47.5t-1 43t-3 38.5t-6 33.5t-11 28.5t-16 24t-22 19t-29.5 13.5t-38 8t-47.5 2.5 q-62 0 -143 -23.5t-115 -53.5q-22 -21 -27.5 -51.5t-5.5 -112.5v-674h-195v625v35v52.5t-1.5 46.5t-4.5 40.5t-8.5 34.5t-14.5 29t-22 22.5t-30.5 16t-40.5 10t-52 3.5q-62 0 -143 -23.5t-115 -53.5q-22 -21 -27.5 -51.5t-5.5 -112.5v-674h-194v510q0 294 -16 526z" />
<glyph unicode="n" horiz-adv-x="1175" d="M150 1036l176 17q17 -59 26 -135q83 65 201 108t205 43q103 0 167 -37t89 -125q18 -66 18 -256v-651h-194v623v28v50t-1 43.5t-3.5 40.5t-6.5 33.5t-11 30t-16.5 23t-23 19.5t-31 12.5t-39.5 9t-49 2.5q-62 0 -146 -23.5t-118 -53.5q-22 -21 -27.5 -51.5t-5.5 -112.5 v-674h-194v510q0 294 -16 526z" />
<glyph unicode="o" horiz-adv-x="1144" d="M82 510q0 271 138 416t376 145q243 0 354 -125t111 -407q0 -271 -131.5 -417.5t-376.5 -146.5q-471 0 -471 535zM281 553q0 -451 292 -451q151 0 221 94t70 304q0 61 -3.5 109t-13.5 102t-29.5 93t-49.5 71.5t-76.5 49.5t-107.5 17q-148 0 -225.5 -91t-77.5 -298z" />
<glyph unicode="p" horiz-adv-x="1181" d="M150 1036l169 17q19 -65 25 -140q71 62 185 109t208 47q189 0 275 -131t86 -412q0 -263 -121 -403.5t-318 -140.5q-178 0 -301 77v-491h-194v1024q0 280 -14 444zM356 358q0 -70 7.5 -103.5t27.5 -55.5q27 -30 97 -57t130 -27q67 0 114 16.5t86 58.5t58 123t19 201 q0 410 -236 410q-83 0 -165.5 -30.5t-108.5 -72.5q-27 -46 -29 -151v-312z" />
<glyph unicode="q" horiz-adv-x="1202" d="M82 518q0 140 36 248t98 173t140.5 97.5t169.5 32.5q82 0 168 -25t150 -73q0 5 8 44t10 44l162 -12q-10 -184 -10 -539v-942h-195v551q-69 -58 -166.5 -96.5t-187.5 -38.5q-383 0 -383 536zM283 535q0 -201 67.5 -306.5t184.5 -105.5q80 0 155 29.5t103 72.5 q15 25 20.5 56t7.5 96v315q0 73 -6.5 108t-26.5 56q-27 30 -97.5 55t-129.5 25q-55 0 -95.5 -9.5t-76.5 -36t-58 -71t-35 -115.5t-13 -169z" />
<glyph unicode="r" horiz-adv-x="755" d="M150 1036l180 17q9 -35 17.5 -90t8.5 -70q58 73 137 121.5t164 48.5q55 0 93 -6l-27 -174q-58 12 -115 12q-63 0 -126 -29t-85 -61q-19 -28 -25.5 -62t-6.5 -110v-633h-195v537q0 287 -20 499z" />
<glyph unicode="s" horiz-adv-x="851" d="M43 61l51 140q167 -82 318 -82q107 0 154.5 37.5t47.5 109.5q0 52 -40 89.5t-140 76.5l-121 47q-120 49 -171.5 120t-51.5 167q0 142 105 223.5t294 81.5q126 0 273 -45l-31 -137q-147 39 -270 39q-106 0 -146.5 -32.5t-40.5 -96.5q0 -48 33 -85t125 -73l127 -51 q138 -56 190 -124t52 -171q0 -143 -111 -232.5t-293 -89.5q-81 0 -180.5 24t-173.5 64z" />
<glyph unicode="t" horiz-adv-x="675" d="M37 909v105l164 35q2 11 18 280h172v-285h275v-135h-275v-610q0 -102 37 -139q35 -35 115 -35q54 0 133 14l24 -119q-125 -38 -231 -38q-62 0 -116.5 17.5t-84.5 47.5q-37 37 -53 99t-16 171v592h-162z" />
<glyph unicode="u" horiz-adv-x="1175" d="M143 397v647h195v-622q0 -147 14 -197q27 -98 187 -98q61 0 134.5 24t108.5 56q22 21 27.5 51.5t5.5 112.5v673h195v-509q0 -298 16 -527l-176 -16q-14 58 -27 133q-84 -68 -189 -109t-192 -41q-104 0 -178.5 41.5t-99.5 128.5q-21 80 -21 252z" />
<glyph unicode="v" horiz-adv-x="1024" d="M10 1036l207 17q214 -597 295 -854q82 241 319 854l179 -17l-414 -1036h-197z" />
<glyph unicode="w" horiz-adv-x="1505" d="M20 1034l203 19q149 -568 213 -840q10 45 22.5 92t36 129t41 141t62.5 211.5t76 257.5h188q193 -656 236 -831q48 227 223 840l172 -15l-305 -1038h-195q-201 673 -239 827q-43 -172 -246 -827h-197z" />
<glyph unicode="x" horiz-adv-x="1071" d="M31 10l385 518l-369 504l229 23q193 -264 273 -389q88 135 280 389l191 -23l-373 -485l391 -537l-231 -20q-64 89 -293 416q-83 -127 -291 -416z" />
<glyph unicode="y" horiz-adv-x="1019" d="M10 1036l207 17q240 -705 293 -883q93 285 315 883l179 -17l-377 -989q-121 -315 -211 -401q-93 -90 -246 -90q-70 0 -125 10l21 135q58 -4 92 -4q53 0 89.5 19t71.5 61q61 75 109 223h-43z" />
<glyph unicode="z" horiz-adv-x="942" d="M47 0v121q184 239 319 412t196.5 251t92.5 119h-561l25 141h772v-124q-143 -184 -257 -329.5t-165.5 -210t-113.5 -141.5t-79 -98h621v-141h-850z" />
<glyph unicode="{" horiz-adv-x="686" d="M63 524v99q80 17 120 49t56.5 93t16.5 177v240q0 83 20 144.5t54 100t86.5 62t109.5 32.5t131 9v-98q-51 0 -89 -10t-69.5 -35t-48 -72.5t-16.5 -116.5v-250q0 -60 -6 -107.5t-14.5 -81.5t-26 -61t-32.5 -43.5t-43.5 -32t-49 -23.5t-57.5 -21q46 -12 78 -26t62.5 -41.5 t48.5 -67t29 -100.5t11 -144v-244q0 -132 58.5 -184t164.5 -52v-98q-75 0 -132 8.5t-109.5 31t-86 61t-53.5 100.5t-20 147v238q0 92 -10.5 151t-35.5 94t-58.5 50.5t-88.5 21.5z" />
<glyph unicode="|" horiz-adv-x="473" d="M156 -397v1943h163v-1943h-163z" />
<glyph unicode="}" horiz-adv-x="686" d="M29 -281q107 0 166 51t59 183v250q0 60 5.5 107.5t14 81.5t26 61t32.5 43.5t43 32t48.5 23.5t57.5 21q-46 12 -77.5 26t-62 41.5t-48.5 67t-28.5 100.5t-10.5 144v244q0 131 -59.5 183.5t-165.5 52.5v98q75 0 132 -8.5t110 -31t87 -61t54 -100.5t20 -147v-238 q0 -92 10 -151t34.5 -94t58 -50.5t88.5 -21.5v-99q-80 -17 -119.5 -49t-55.5 -93t-16 -177v-240q0 -83 -20 -145t-54.5 -100t-87 -61.5t-110 -32.5t-131.5 -9v98z" />
<glyph unicode="~" horiz-adv-x="1497" d="M164 563q87 120 172 172.5t180 52.5q52 0 110 -18.5t167 -77.5q68 -36 108.5 -50.5t77.5 -14.5q66 0 122.5 37.5t115.5 128.5l112 -93q-81 -117 -163.5 -175t-186.5 -58q-109 0 -246 78q-156 88 -221 88q-64 0 -119.5 -35.5t-116.5 -122.5z" />
<glyph unicode="&#xa1;" horiz-adv-x="575" d="M143 942q0 131 123 131t123 -127q0 -65 -33.5 -98t-93.5 -33q-119 0 -119 127zM152 -383q0 61 41 1012h145q41 -949 41 -1012h-227z" />
<glyph unicode="&#xa2;" horiz-adv-x="1028" d="M147 524q0 241 111.5 385t300.5 174v201h115v-192q18 0 36 -1t36.5 -3t32 -3.5t33 -5.5t29 -5.5t30 -6t26.5 -6t28 -6.5t25 -6l-37 -152q-137 41 -239 47v-801q100 2 264 74q37 -86 41 -96q-56 -40 -139.5 -74t-165.5 -47v-190h-115v188q-199 12 -305.5 145t-106.5 381z M342 549q0 -333 217 -393v780q-119 -24 -168 -116.5t-49 -270.5z" />
<glyph unicode="&#xa3;" horiz-adv-x="1167" d="M125 0v117q289 154 289 321q0 52 -37 144h-225v120h182q-2 5 -13 36.5t-14.5 40.5t-13 38t-13 42t-10 38.5t-9 42.5t-5 39t-2.5 41q0 180 125 287.5t332 107.5q209 0 348 -49q-7 -24 -20.5 -73t-20.5 -72q-192 55 -322 55q-123 0 -183 -64t-60 -180q0 -117 77 -330h381 v-120h-348q17 -83 17 -136q0 -83 -52.5 -156.5t-179.5 -142.5h764q-3 -25 -11 -74t-11 -73h-965z" />
<glyph unicode="&#xa4;" horiz-adv-x="1112" d="M80 311l133 138q-86 113 -86 260t84 258l-131 137l92 94l133 -135q108 82 252 82q139 0 250 -82l131 135l92 -94l-129 -137q80 -109 80 -258q0 -150 -82 -258l135 -140l-96 -96l-129 137q-109 -76 -254 -76q-148 0 -250 72l-133 -133zM272 713q0 -134 79 -219.5 t206 -85.5q121 0 200 86.5t79 214.5q0 129 -78.5 215t-200.5 86q-123 0 -204 -85.5t-81 -211.5z" />
<glyph unicode="&#xa5;" horiz-adv-x="1263" d="M43 1376l236 15q252 -446 370 -684q13 23 53.5 96.5t72.5 131t103.5 181t161.5 275.5l195 -15l-358 -573h210v-107h-272l-86 -149v-27h358v-108h-358v-412h-197v412h-362v108h362v27l-86 149h-276v107h213z" />
<glyph unicode="&#xa6;" horiz-adv-x="483" d="M160 -276v718h164v-718h-164zM160 727v719h164v-719h-164z" />
<glyph unicode="&#xa7;" horiz-adv-x="958" d="M35 -180l35 151q95 -40 194.5 -60t175.5 -20q122 0 174 40t52 114q0 59 -46 100.5t-163 104.5l-152 82q-126 68 -181.5 135t-55.5 162q0 92 64 163t165 103q-162 112 -162 272q0 57 22.5 109t67.5 96.5t124 71t181 26.5q93 0 186 -17t148 -42l-41 -141q-142 57 -325 57 q-187 0 -187 -149q0 -52 44.5 -95t164.5 -108l148 -82q131 -75 181 -144.5t50 -160.5q0 -84 -60 -154t-157 -108q95 -62 132.5 -124.5t37.5 -133.5q0 -152 -123 -240t-311 -88q-197 0 -383 80zM236 666q0 -44 22.5 -77.5t75.5 -66.5q78 -48 207 -112q30 -13 51 -13 q48 0 92.5 46t44.5 120q0 73 -84 131q-47 31 -194 115q-39 20 -70 20q-55 0 -100 -45.5t-45 -117.5z" />
<glyph unicode="&#xa8;" horiz-adv-x="430" d="M-70 1354q0 110 105 110q96 0 96 -108q0 -109 -100 -109q-101 0 -101 107zM301 1354q0 110 107 110q94 0 94 -108q0 -109 -101 -109q-50 0 -75 25.5t-25 81.5z" />
<glyph unicode="&#xa9;" horiz-adv-x="1738" d="M111 721q0 210 98.5 383t271.5 272t385 99q161 0 302.5 -58t242.5 -158t159 -240t58 -298q0 -210 -98.5 -382t-272.5 -270t-389 -98q-160 0 -301 58t-241 157.5t-157.5 238.5t-57.5 296zM199 721q0 -188 85.5 -341t239 -241t344.5 -88t345.5 88t240.5 241.5t86 340.5 q0 142 -51 266.5t-139.5 214t-214.5 141.5t-269 52q-142 0 -266.5 -52t-212 -142t-138 -214.5t-50.5 -265.5zM434 707q0 241 132 371t341 130q153 0 277 -43l-25 -127q-129 35 -272 35t-214 -83.5t-71 -268.5q0 -178 80 -262t223 -84q117 0 258 49l31 -109 q-168 -77 -311 -77q-208 0 -328.5 118.5t-120.5 350.5z" />
<glyph unicode="&#xaa;" horiz-adv-x="698" d="M47 764q0 134 148 170q118 27 274 35v49q0 76 -31 107.5t-104 31.5q-78 0 -209 -41l-25 88q62 27 142.5 45.5t134.5 18.5q127 0 179 -52t52 -188q0 -27 -2 -132.5t-2 -139.5q0 -81 70 -140l-94 -61q-38 10 -64.5 36t-34.5 54q-115 -88 -227 -88q-95 0 -151 61.5 t-56 145.5zM193 768q0 -51 27.5 -80t74.5 -29q63 0 139 37q11 4 25 23q10 13 10 47v123q-168 -16 -227 -39q-49 -21 -49 -82z" />
<glyph unicode="&#xab;" horiz-adv-x="1028" d="M117 483v99l401 374l55 -63l-305 -354l307 -363l-57 -70zM496 483v99l401 374l57 -63l-305 -350l305 -367l-57 -70z" />
<glyph unicode="&#xac;" horiz-adv-x="1497" d="M156 555v150h1112v-631h-154v481h-958z" />
<glyph unicode="&#xad;" horiz-adv-x="718" d="M80 532v166h559v-166h-559z" />
<glyph unicode="&#xae;" horiz-adv-x="1738" d="M111 721q0 210 98.5 383t271.5 272t385 99q161 0 302.5 -58t242.5 -158t159 -240t58 -298q0 -210 -98.5 -382t-272.5 -270t-389 -98q-160 0 -301 58t-241 157.5t-157.5 238.5t-57.5 296zM199 721q0 -188 85.5 -341t239 -241t344.5 -88t345.5 88t240.5 241.5t86 340.5 q0 142 -51 266.5t-139.5 214t-214.5 141.5t-269 52q-142 0 -266.5 -52t-212 -142t-138 -214.5t-50.5 -265.5zM563 279v899q165 10 266 10q196 0 280.5 -58t84.5 -176q0 -93 -56.5 -150.5t-152.5 -80.5q65 -21 114 -74.5t99 -181.5q31 -75 90 -184l-168 -9q-13 21 -23.5 42.5 t-24 54t-17.5 41.5q-48 114 -80.5 161.5t-71.5 69.5q-43 25 -115 25q-40 0 -71 -2v-387h-154zM717 776q11 0 31 -1t32 -1q135 0 194.5 34t59.5 130q0 67 -47 104t-160 37q-40 0 -110 -4v-299z" />
<glyph unicode="&#xaf;" horiz-adv-x="430" d="M-74 1249v135h578v-135h-578z" />
<glyph unicode="&#xb0;" horiz-adv-x="641" d="M41 1198q0 133 80 208t209 75q126 0 198 -73t72 -208q0 -133 -77.5 -206.5t-205.5 -73.5q-123 0 -199.5 73t-76.5 205zM158 1194q0 -83 46 -129.5t120 -46.5t117.5 48t43.5 132q0 89 -43.5 136.5t-119.5 47.5q-74 0 -119 -49t-45 -139z" />
<glyph unicode="&#xb1;" horiz-adv-x="1497" d="M193 0v152h1112v-152h-1112zM193 739v152h477v463h157v-463h478v-152h-478v-465h-155v465h-479z" />
<glyph unicode="&#xb2;" horiz-adv-x="782" d="M76 922v94q130 101 209 168t141 139q54 60 75 109t21 102q0 66 -42 107.5t-126 41.5q-108 0 -209 -34l-30 90q136 57 254 57q150 0 223.5 -66.5t73.5 -185.5q0 -132 -105 -246q-83 -94 -328 -264q127 2 457 2l-20 -114h-594z" />
<glyph unicode="&#xb3;" horiz-adv-x="782" d="M82 948l27 96q121 -36 231 -36q98 0 142 41t44 110q0 73 -58 112.5t-202 39.5v96q76 0 127.5 11.5t76.5 34t34.5 46t9.5 55.5q0 134 -158 134q-122 0 -219 -35l-22 90q132 53 258 53q142 0 212 -55t70 -170q0 -66 -46 -122.5t-126 -80.5q90 -17 141.5 -70.5t51.5 -134.5 q0 -134 -91.5 -199t-240.5 -65q-53 0 -129 13.5t-133 35.5z" />
<glyph unicode="&#xb4;" horiz-adv-x="430" d="M4 1221l246 342l164 -76l-320 -313z" />
<glyph unicode="&#xb5;" horiz-adv-x="1206" d="M170 -432v1476h195v-612q0 -146 14 -196q26 -105 186 -105q61 0 135.5 23.5t108.5 56.5q21 21 27 53t6 111v669h194v-507q0 -285 17 -529l-176 -16q-22 90 -27 137q-153 -141 -307 -141q-124 0 -185 78q7 -143 7 -498h-195z" />
<glyph unicode="&#xb6;" horiz-adv-x="1134" d="M86 956q0 115 31 202.5t98.5 153t180 100t268.5 34.5h294v-1741h-98v1638h-203v-1638h-98v799q-228 0 -350.5 126t-122.5 326z" />
<glyph unicode="&#xb7;" horiz-adv-x="438" d="M96 569q0 129 129 129q119 0 119 -127q0 -64 -32.5 -97.5t-92.5 -33.5q-123 0 -123 129z" />
<glyph unicode="&#xb8;" horiz-adv-x="430" d="M31 -465l24 88q46 -10 82 -10q63 0 89 24t26 68q0 80 -98 80q-10 0 -80 -4l90 239h86l-57 -145q97 0 150.5 -42t53.5 -122q0 -100 -65.5 -147t-179.5 -47q-65 0 -121 18z" />
<glyph unicode="&#xb9;" horiz-adv-x="782" d="M147 1649q125 64 228 123h117v-850h-140v710q-14 -6 -48 -19.5t-65.5 -26.5t-58.5 -23z" />
<glyph unicode="&#xba;" horiz-adv-x="741" d="M47 903q0 175 92.5 270t247.5 95q159 0 233 -82.5t74 -265.5q0 -176 -86.5 -270.5t-249.5 -94.5q-311 0 -311 348zM193 930q0 -277 180 -277q93 0 135.5 58t42.5 186q0 46 -3 80t-13.5 72t-28.5 62t-50 40t-77 16q-94 0 -140 -55t-46 -182z" />
<glyph unicode="&#xbb;" horiz-adv-x="1028" d="M74 170l305 352l-305 365l57 69l399 -374v-99l-399 -377zM453 170l305 352l-305 365l57 69l399 -374v-99l-399 -377z" />
<glyph unicode="&#xbc;" horiz-adv-x="1746" d="M125 1262q133 68 227 122h115v-849h-139v710q-95 -40 -170 -69zM428 18l676 1389l96 -39l-672 -1388zM915 201v92l402 557h137v-543h141l-6 -106h-135v-201h-133v201h-406zM1049 307h272q0 297 2 389q-58 -91 -274 -389z" />
<glyph unicode="&#xbd;" horiz-adv-x="1746" d="M121 1262q96 49 227 122h115v-849h-139v710q-14 -6 -48 -19.5t-65.5 -26.5t-58.5 -23zM424 18l676 1389l96 -39l-674 -1388zM1018 0v94q130 101 209 168t141 139q54 60 75 109t21 102q0 66 -42.5 108t-125.5 42q-105 0 -209 -35l-30 90q136 57 254 57q149 0 222 -66 t73 -185q0 -134 -103 -246q-85 -96 -327 -264q127 2 456 2l-20 -115h-594z" />
<glyph unicode="&#xbe;" horiz-adv-x="1746" d="M84 561l27 96q124 -36 231 -36q188 0 188 151q0 72 -59 112t-203 40v96q76 0 127.5 11.5t76.5 34t34.5 46t9.5 55.5q0 133 -158 133q-125 0 -219 -34l-22 90q132 53 258 53q143 0 212.5 -55t69.5 -170q0 -66 -46 -122.5t-126 -80.5q91 -17 142 -70.5t51 -134.5 q0 -134 -91.5 -199t-240.5 -65q-53 0 -129 13.5t-133 35.5zM512 18l674 1389l96 -39l-672 -1388zM971 201v92l399 557h137v-543h144l-6 -106h-138v-201h-133v201h-403zM1102 307h272q0 297 2 389q-58 -94 -274 -389z" />
<glyph unicode="&#xbf;" horiz-adv-x="888" d="M76 -63q0 116 52 213.5t189 203.5q82 64 111 126.5t31 150.5h145q2 -25 2 -82q-3 -82 -31.5 -139t-105.5 -115q-103 -80 -146.5 -157t-43.5 -163q0 -110 65 -164.5t174 -54.5q136 0 285 43l35 -129q-89 -30 -188.5 -46.5t-168.5 -16.5q-188 0 -296.5 81t-108.5 249z M408 944q0 131 124 131q123 0 123 -127q0 -131 -129 -131q-118 0 -118 127z" />
<glyph unicode="&#xc0;" horiz-adv-x="1329" d="M18 6l547 1440h228l514 -1440l-215 -12l-156 440h-565l-170 -440zM365 1810l151 107l318 -305l-76 -64zM420 580h467q-112 317 -225 669q-30 -97 -242 -669z" />
<glyph unicode="&#xc1;" horiz-adv-x="1329" d="M18 6l547 1440h228l514 -1440l-215 -12l-156 440h-565l-170 -440zM420 580h467q-112 317 -225 669q-30 -97 -242 -669zM530 1612l324 303l145 -105l-391 -262z" />
<glyph unicode="&#xc2;" horiz-adv-x="1329" d="M18 6l547 1440h228l514 -1440l-215 -12l-156 440h-565l-170 -440zM350 1581l254 281h146l245 -277l-84 -55l-239 196l-244 -196zM420 580h467q-112 317 -225 669q-30 -97 -242 -669z" />
<glyph unicode="&#xc3;" horiz-adv-x="1329" d="M18 6l547 1440h228l514 -1440l-215 -12l-156 440h-565l-170 -440zM326 1616q37 99 92 153t121 54q48 0 157 -56q74 -38 125 -38q34 0 58.5 25.5t52.5 78.5l86 -37q-45 -108 -94 -158.5t-113 -50.5t-158 47q-96 52 -129 52q-64 0 -110 -105zM420 580h467 q-112 317 -225 669q-30 -97 -242 -669z" />
<glyph unicode="&#xc4;" horiz-adv-x="1329" d="M18 6l547 1440h228l514 -1440l-215 -12l-156 440h-565l-170 -440zM369 1683q0 111 104 111q49 0 72.5 -26t23.5 -82q0 -109 -100 -109q-51 0 -75.5 25t-24.5 81zM420 580h467q-112 317 -225 669q-30 -97 -242 -669zM766 1683q0 111 104 111q97 0 97 -108 q0 -109 -101 -109q-52 0 -76 25t-24 81z" />
<glyph unicode="&#xc5;" horiz-adv-x="1329" d="M18 6l547 1440h228l514 -1440l-215 -12l-156 440h-565l-170 -440zM420 580h467q-112 317 -225 669q-30 -97 -242 -669zM471 1726q0 88 59 142.5t148 54.5t144 -54t55 -143q0 -87 -58 -143.5t-145 -56.5q-88 0 -145.5 55.5t-57.5 144.5zM567 1726q0 -50 29 -84t82 -34 q48 0 75 33.5t27 84.5q0 50 -29.5 82.5t-76.5 32.5q-48 0 -77.5 -33t-29.5 -82z" />
<glyph unicode="&#xc6;" horiz-adv-x="1966" d="M0 6l926 1440h915l-24 -152h-611v-469h582v-149h-582v-524h705l-25 -152h-882v436h-506l-285 -444zM575 586h429v688q-112 -192 -429 -688z" />
<glyph unicode="&#xc7;" horiz-adv-x="1273" d="M100 690q0 384 181 585.5t495 201.5q187 0 412 -54l-37 -159q-184 57 -379 57q-467 0 -467 -586q0 -301 121 -455.5t348 -154.5q100 0 206.5 31t190.5 75l58 -125q-124 -67 -253 -101t-233 -34l-38 -102q101 -2 155.5 -45t54.5 -127q0 -105 -67.5 -155t-185.5 -50 q-64 0 -125 21l26 92q51 -13 84 -13q119 0 119 97q0 41 -26.5 63.5t-75.5 22.5q-8 0 -82 -4l75 204q-557 46 -557 715z" />
<glyph unicode="&#xc8;" horiz-adv-x="1142" d="M182 0v1446h836l-25 -152h-610v-469h582v-149h-582v-524h704l-24 -152h-881zM285 1810l151 107l318 -305l-76 -64z" />
<glyph unicode="&#xc9;" horiz-adv-x="1142" d="M182 0v1446h836l-25 -152h-610v-469h582v-149h-582v-524h704l-24 -152h-881zM459 1612l323 303l146 -105l-391 -262z" />
<glyph unicode="&#xca;" horiz-adv-x="1142" d="M182 0v1446h836l-25 -152h-610v-469h582v-149h-582v-524h704l-24 -152h-881zM279 1581l253 281h146l246 -277l-84 -55l-240 196l-244 -196z" />
<glyph unicode="&#xcb;" horiz-adv-x="1142" d="M182 0v1446h836l-25 -152h-610v-469h582v-149h-582v-524h704l-24 -152h-881zM322 1683q0 111 104 111q49 0 72.5 -26t23.5 -82q0 -109 -100 -109q-51 0 -75.5 25t-24.5 81zM719 1683q0 111 104 111q97 0 97 -108q0 -109 -101 -109q-52 0 -76 25t-24 81z" />
<glyph unicode="&#xcc;" horiz-adv-x="565" d="M-45 1810l151 107l318 -305l-76 -64zM182 0v1446h201v-1446h-201z" />
<glyph unicode="&#xcd;" horiz-adv-x="565" d="M162 1612l323 303l146 -105l-391 -262zM182 0v1446h201v-1446h-201z" />
<glyph unicode="&#xce;" horiz-adv-x="565" d="M-45 1581l254 281h145l246 -277l-84 -55l-240 196l-243 -196zM182 0v1446h201v-1446h-201z" />
<glyph unicode="&#xcf;" horiz-adv-x="565" d="M-20 1683q0 111 104 111q49 0 72.5 -26t23.5 -82q0 -109 -100 -109q-51 0 -75.5 25t-24.5 81zM182 0v1446h201v-1446h-201zM377 1683q0 111 104 111q97 0 97 -108q0 -109 -101 -109q-52 0 -76 25t-24 81z" />
<glyph unicode="&#xd0;" horiz-adv-x="1439" d="M18 700v129h164v607q254 18 391 18q250 0 392 -43q376 -113 376 -635q0 -575 -389 -719q-177 -65 -426 -65q-120 0 -344 14v694h-164zM383 154q94 -11 209 -11q234 0 356 80q182 124 182 539q0 379 -225 493q-108 54 -327 54q-67 0 -195 -9v-471h403v-129h-403v-546z" />
<glyph unicode="&#xd1;" horiz-adv-x="1501" d="M182 0v1446h250q612 -969 725 -1165q-8 276 -8 1165h170v-1446h-205q-157 252 -314 503t-224 358t-126.5 204t-97.5 162q6 -219 6 -1227h-176zM418 1616q37 99 92 153t121 54q48 0 157 -56q74 -38 125 -38q34 0 58.5 25.5t52.5 78.5l86 -37q-45 -108 -94 -158.5 t-113 -50.5t-158 47q-96 52 -129 52q-64 0 -110 -105z" />
<glyph unicode="&#xd2;" horiz-adv-x="1492" d="M100 705q0 202 49.5 353t140 241.5t210 134t268.5 43.5q315 0 470 -170.5t155 -546.5q0 -789 -668 -789q-309 0 -467 178t-158 556zM305 760q0 -324 113 -484.5t315 -160.5q227 0 339 135.5t112 449.5q0 315 -103 474t-323 159q-218 0 -335.5 -136t-117.5 -437zM434 1810 l152 107l317 -305l-76 -64z" />
<glyph unicode="&#xd3;" horiz-adv-x="1492" d="M100 705q0 202 49.5 353t140 241.5t210 134t268.5 43.5q315 0 470 -170.5t155 -546.5q0 -789 -668 -789q-309 0 -467 178t-158 556zM305 760q0 -324 113 -484.5t315 -160.5q227 0 339 135.5t112 449.5q0 315 -103 474t-323 159q-218 0 -335.5 -136t-117.5 -437zM621 1612 l323 303l146 -105l-392 -262z" />
<glyph unicode="&#xd4;" horiz-adv-x="1492" d="M100 705q0 202 49.5 353t140 241.5t210 134t268.5 43.5q315 0 470 -170.5t155 -546.5q0 -789 -668 -789q-309 0 -467 178t-158 556zM305 760q0 -324 113 -484.5t315 -160.5q227 0 339 135.5t112 449.5q0 315 -103 474t-323 159q-218 0 -335.5 -136t-117.5 -437zM426 1581 l254 281h145l246 -277l-84 -55l-239 196l-244 -196z" />
<glyph unicode="&#xd5;" horiz-adv-x="1492" d="M100 705q0 202 49.5 353t140 241.5t210 134t268.5 43.5q315 0 470 -170.5t155 -546.5q0 -789 -668 -789q-309 0 -467 178t-158 556zM305 760q0 -324 113 -484.5t315 -160.5q227 0 339 135.5t112 449.5q0 315 -103 474t-323 159q-218 0 -335.5 -136t-117.5 -437zM401 1616 q37 99 92 153t121 54q49 0 158 -56q74 -38 125 -38q34 0 58.5 25.5t52.5 78.5l86 -37q-45 -108 -94 -158.5t-113 -50.5t-158 47q-96 52 -129 52q-65 0 -111 -105z" />
<glyph unicode="&#xd6;" horiz-adv-x="1492" d="M100 705q0 202 49.5 353t140 241.5t210 134t268.5 43.5q315 0 470 -170.5t155 -546.5q0 -789 -668 -789q-309 0 -467 178t-158 556zM305 760q0 -324 113 -484.5t315 -160.5q227 0 339 135.5t112 449.5q0 315 -103 474t-323 159q-218 0 -335.5 -136t-117.5 -437zM451 1683 q0 111 104 111q49 0 72.5 -26t23.5 -82q0 -109 -100 -109q-51 0 -75.5 25t-24.5 81zM848 1683q0 111 104 111q97 0 97 -108q0 -109 -101 -109q-52 0 -76 25t-24 81z" />
<glyph unicode="&#xd7;" horiz-adv-x="1497" d="M276 993l109 113l365 -367l366 365l105 -109l-369 -364l362 -357l-106 -112l-360 360l-361 -362l-104 108l362 361z" />
<glyph unicode="&#xd8;" horiz-adv-x="1492" d="M100 705q0 202 49.5 353t140 241.5t210 134t268.5 43.5q245 0 389 -101l115 156l86 -64l-121 -163q156 -176 156 -545q0 -789 -668 -789q-246 0 -391 107l-115 -154l-88 60l123 168q-154 183 -154 553zM305 760q0 -267 80 -430l657 893q-104 110 -284 110 q-218 0 -335.5 -136t-117.5 -437zM449 236q109 -121 284 -121q227 0 339 135.5t112 449.5q0 275 -78 428z" />
<glyph unicode="&#xd9;" horiz-adv-x="1462" d="M172 584v862h203v-860q0 -213 35 -299q30 -77 118.5 -122.5t214.5 -45.5q170 0 271 88q55 48 77.5 130t22.5 241v868h176v-858q0 -159 -14 -248t-51 -156q-56 -102 -193 -158.5t-315 -56.5q-171 0 -303 57t-189 177q-53 113 -53 381zM412 1810l151 107l318 -305l-76 -64z " />
<glyph unicode="&#xda;" horiz-adv-x="1462" d="M172 584v862h203v-860q0 -213 35 -299q30 -77 118.5 -122.5t214.5 -45.5q170 0 271 88q55 48 77.5 130t22.5 241v868h176v-858q0 -159 -14 -248t-51 -156q-56 -102 -193 -158.5t-315 -56.5q-171 0 -303 57t-189 177q-53 113 -53 381zM604 1612l324 303l145 -105 l-391 -262z" />
<glyph unicode="&#xdb;" horiz-adv-x="1462" d="M172 584v862h203v-860q0 -213 35 -299q30 -77 118.5 -122.5t214.5 -45.5q170 0 271 88q55 48 77.5 130t22.5 241v868h176v-858q0 -159 -14 -248t-51 -156q-56 -102 -193 -158.5t-315 -56.5q-171 0 -303 57t-189 177q-53 113 -53 381zM420 1581l254 281h145l246 -277 l-84 -55l-240 196l-243 -196z" />
<glyph unicode="&#xdc;" horiz-adv-x="1462" d="M172 584v862h203v-860q0 -213 35 -299q30 -77 118.5 -122.5t214.5 -45.5q170 0 271 88q55 48 77.5 130t22.5 241v868h176v-858q0 -159 -14 -248t-51 -156q-56 -102 -193 -158.5t-315 -56.5q-171 0 -303 57t-189 177q-53 113 -53 381zM446 1683q0 111 105 111 q49 0 72.5 -26t23.5 -82q0 -109 -100 -109q-51 0 -76 25t-25 81zM844 1683q0 111 104 111q49 0 72.5 -26t23.5 -82q0 -109 -100 -109q-52 0 -76 25t-24 81z" />
<glyph unicode="&#xdd;" horiz-adv-x="1273" d="M14 1438l236 16q198 -332 276 -466.5t125 -227.5q109 195 414 694l197 -16l-531 -856v-582h-203v582zM526 1612l324 303l145 -105l-391 -262z" />
<glyph unicode="&#xde;" horiz-adv-x="1257" d="M182 0v1446h201v-281q115 13 252 13q132 0 229 -21.5t155 -56t92.5 -87.5t46 -107t11.5 -124q0 -107 -30.5 -188t-82.5 -132.5t-131 -84t-167.5 -46t-200.5 -14.5q-77 0 -174 5v-322h-201zM383 473q61 -4 168 -4q229 0 319.5 65.5t90.5 233.5q0 120 -81.5 188t-275.5 68 q-122 0 -221 -12v-539z" />
<glyph unicode="&#xdf;" horiz-adv-x="1181" d="M178 0v993q0 217 74 338q57 92 168.5 153.5t236.5 61.5q83 0 148 -20t103 -50t63 -69.5t34 -74.5t9 -70q0 -86 -39 -154.5t-117 -153.5q-55 -61 -72.5 -89.5t-17.5 -55.5q0 -24 25 -52t79 -73l60 -51q104 -86 144 -155.5t40 -143.5q0 -68 -24 -126.5t-64.5 -99t-93 -69 t-108 -42t-111.5 -13.5q-61 0 -136.5 15t-134.5 38l60 141q45 -21 105 -37t104 -16q103 0 152.5 38t49.5 132q0 96 -118 194l-78 68q-62 53 -91 82t-46 62t-17 71t23 78.5t71 97.5q78 92 115 157t37 126q0 76 -46.5 129t-150.5 53q-125 0 -188 -96q-55 -86 -55 -313v-1004 h-193z" />
<glyph unicode="&#xe0;" horiz-adv-x="1048" d="M74 293q0 102 52 162t167 88q163 39 418 53v109q0 111 -41 155q-29 30 -62 40.5t-94 10.5q-128 0 -330 -63l-32 121q97 41 220.5 68.5t205.5 27.5q86 0 138 -13.5t93 -47.5q50 -40 71 -108t21 -191q0 -41 -2 -209t-2 -220q0 -77 28.5 -127.5t78.5 -93.5l-127 -80 q-52 16 -90.5 56t-53.5 82q-100 -70 -182.5 -103t-169.5 -33q-141 0 -224 93.5t-83 222.5zM250 1487l168 82l235 -350l-88 -50zM262 303q0 -82 51 -134t131 -52q121 0 215 57q31 22 41.5 41t10.5 66v204q-266 -17 -369 -61q-80 -33 -80 -121z" />
<glyph unicode="&#xe1;" horiz-adv-x="1048" d="M74 293q0 102 52 162t167 88q163 39 418 53v109q0 111 -41 155q-29 30 -62 40.5t-94 10.5q-128 0 -330 -63l-32 121q97 41 220.5 68.5t205.5 27.5q86 0 138 -13.5t93 -47.5q50 -40 71 -108t21 -191q0 -41 -2 -209t-2 -220q0 -77 28.5 -127.5t78.5 -93.5l-127 -80 q-52 16 -90.5 56t-53.5 82q-100 -70 -182.5 -103t-169.5 -33q-141 0 -224 93.5t-83 222.5zM262 303q0 -82 51 -134t131 -52q121 0 215 57q31 22 41.5 41t10.5 66v204q-266 -17 -369 -61q-80 -33 -80 -121zM412 1221l245 342l164 -76l-319 -313z" />
<glyph unicode="&#xe2;" horiz-adv-x="1048" d="M74 293q0 102 52 162t167 88q163 39 418 53v109q0 111 -41 155q-29 30 -62 40.5t-94 10.5q-128 0 -330 -63l-32 121q97 41 220.5 68.5t205.5 27.5q86 0 138 -13.5t93 -47.5q50 -40 71 -108t21 -191q0 -41 -2 -209t-2 -220q0 -77 28.5 -127.5t78.5 -93.5l-127 -80 q-52 16 -90.5 56t-53.5 82q-100 -70 -182.5 -103t-169.5 -33q-141 0 -224 93.5t-83 222.5zM240 1217l233 311h127l229 -307l-79 -58l-218 219l-217 -219zM262 303q0 -82 51 -134t131 -52q121 0 215 57q31 22 41.5 41t10.5 66v204q-266 -17 -369 -61q-80 -33 -80 -121z" />
<glyph unicode="&#xe3;" horiz-adv-x="1048" d="M74 293q0 102 52 162t167 88q163 39 418 53v109q0 111 -41 155q-29 30 -62 40.5t-94 10.5q-128 0 -330 -63l-32 121q97 41 220.5 68.5t205.5 27.5q86 0 138 -13.5t93 -47.5q50 -40 71 -108t21 -191q0 -41 -2 -209t-2 -220q0 -77 28.5 -127.5t78.5 -93.5l-127 -80 q-52 16 -90.5 56t-53.5 82q-100 -70 -182.5 -103t-169.5 -33q-141 0 -224 93.5t-83 222.5zM211 1251q77 207 201 207q50 0 149 -55q72 -37 107 -37q34 0 55.5 23.5t48.5 76.5l86 -34q-44 -111 -87.5 -160t-104.5 -49q-58 0 -148 49q-89 47 -115 47q-61 0 -106 -102zM262 303 q0 -82 51 -134t131 -52q121 0 215 57q31 22 41.5 41t10.5 66v204q-266 -17 -369 -61q-80 -33 -80 -121z" />
<glyph unicode="&#xe4;" horiz-adv-x="1048" d="M74 293q0 102 52 162t167 88q163 39 418 53v109q0 111 -41 155q-29 30 -62 40.5t-94 10.5q-128 0 -330 -63l-32 121q97 41 220.5 68.5t205.5 27.5q86 0 138 -13.5t93 -47.5q50 -40 71 -108t21 -191q0 -41 -2 -209t-2 -220q0 -77 28.5 -127.5t78.5 -93.5l-127 -80 q-52 16 -90.5 56t-53.5 82q-100 -70 -182.5 -103t-169.5 -33q-141 0 -224 93.5t-83 222.5zM248 1354q0 110 104 110q97 0 97 -108q0 -109 -101 -109q-50 0 -75 25.5t-25 81.5zM262 303q0 -82 51 -134t131 -52q121 0 215 57q31 22 41.5 41t10.5 66v204q-266 -17 -369 -61 q-80 -33 -80 -121zM618 1354q0 110 107 110q94 0 94 -108q0 -109 -100 -109q-101 0 -101 107z" />
<glyph unicode="&#xe5;" horiz-adv-x="1048" d="M74 293q0 102 52 162t167 88q163 39 418 53v109q0 111 -41 155q-29 30 -62 40.5t-94 10.5q-128 0 -330 -63l-32 121q97 41 220.5 68.5t205.5 27.5q86 0 138 -13.5t93 -47.5q50 -40 71 -108t21 -191q0 -41 -2 -209t-2 -220q0 -77 28.5 -127.5t78.5 -93.5l-127 -80 q-52 16 -90.5 56t-53.5 82q-100 -70 -182.5 -103t-169.5 -33q-141 0 -224 93.5t-83 222.5zM262 303q0 -82 51 -134t131 -52q121 0 215 57q31 22 41.5 41t10.5 66v204q-266 -17 -369 -61q-80 -33 -80 -121zM319 1378q0 92 61.5 150.5t154.5 58.5t150.5 -58t57.5 -151 q0 -87 -61 -147t-152 -60q-90 0 -150.5 59.5t-60.5 147.5zM416 1378q0 -52 31.5 -86.5t87.5 -34.5q51 0 81.5 35t30.5 88q0 55 -32.5 88t-84.5 33t-83 -34t-31 -89z" />
<glyph unicode="&#xe6;" horiz-adv-x="1685" d="M74 293q0 102 53 162.5t170 91.5q147 38 414 57v96q0 116 -46.5 164.5t-158.5 48.5q-126 0 -322 -59l-32 117q97 41 213.5 67.5t201.5 26.5q219 0 273 -156q61 76 156 119t198 43q254 0 350 -186q33 -67 48 -144.5t18 -201.5l-711 -29q0 -79 15.5 -144t51 -119.5 t100.5 -85t155 -30.5q163 0 335 78l46 -103q-86 -51 -202 -91t-229 -40q-254 0 -368 166q-197 -164 -418 -164q-141 0 -226 95t-85 221zM262 303q0 -82 51 -134t131 -52q85 0 169 34t139 91q-38 95 -41 254q-255 -22 -363 -68q-38 -16 -62 -49t-24 -76zM899 616l520 43 q-6 136 -68.5 210.5t-185.5 74.5q-47 0 -92 -18.5t-84.5 -56t-64 -103.5t-25.5 -150z" />
<glyph unicode="&#xe7;" horiz-adv-x="933" d="M82 504q0 271 139.5 419t366.5 148q150 0 293 -41l-37 -153q-137 45 -254 45q-172 0 -240.5 -91.5t-68.5 -302.5q0 -399 315 -399q121 0 272 68l41 -99q-66 -45 -164 -82t-186 -41l-39 -100q97 0 151 -42t54 -122q0 -100 -66 -147t-180 -47q-65 0 -121 18l25 88 q46 -10 82 -10q63 0 89 24t26 68q0 80 -99 80q-10 0 -80 -4l74 199q-186 19 -289.5 155t-103.5 369z" />
<glyph unicode="&#xe8;" horiz-adv-x="1071" d="M82 518q0 114 27.5 208t74.5 157t111 106t134.5 62.5t148.5 19.5q258 0 352 -186q34 -66 49 -140.5t16 -201.5l-721 -17q1 -197 87 -296t245 -99q166 0 338 78l43 -103q-87 -51 -202.5 -91t-229.5 -40q-228 0 -350.5 141t-122.5 402zM279 631l528 33q-16 280 -256 280 q-51 0 -95.5 -16.5t-83.5 -52t-64 -98t-29 -146.5zM281 1487l168 82l235 -350l-88 -50z" />
<glyph unicode="&#xe9;" horiz-adv-x="1071" d="M82 518q0 114 27.5 208t74.5 157t111 106t134.5 62.5t148.5 19.5q258 0 352 -186q34 -66 49 -140.5t16 -201.5l-721 -17q1 -197 87 -296t245 -99q166 0 338 78l43 -103q-87 -51 -202.5 -91t-229.5 -40q-228 0 -350.5 141t-122.5 402zM279 631l528 33q-16 280 -256 280 q-51 0 -95.5 -16.5t-83.5 -52t-64 -98t-29 -146.5zM444 1221l246 342l164 -76l-319 -313z" />
<glyph unicode="&#xea;" horiz-adv-x="1071" d="M82 518q0 114 27.5 208t74.5 157t111 106t134.5 62.5t148.5 19.5q258 0 352 -186q34 -66 49 -140.5t16 -201.5l-721 -17q1 -197 87 -296t245 -99q166 0 338 78l43 -103q-87 -51 -202.5 -91t-229.5 -40q-228 0 -350.5 141t-122.5 402zM254 1217l233 311h127l230 -307 l-80 -58l-217 219l-217 -219zM279 631l528 33q-16 280 -256 280q-51 0 -95.5 -16.5t-83.5 -52t-64 -98t-29 -146.5z" />
<glyph unicode="&#xeb;" horiz-adv-x="1071" d="M82 518q0 114 27.5 208t74.5 157t111 106t134.5 62.5t148.5 19.5q258 0 352 -186q34 -66 49 -140.5t16 -201.5l-721 -17q1 -197 87 -296t245 -99q166 0 338 78l43 -103q-87 -51 -202.5 -91t-229.5 -40q-228 0 -350.5 141t-122.5 402zM272 1354q0 110 105 110 q96 0 96 -108q0 -109 -100 -109q-101 0 -101 107zM279 631l528 33q-16 280 -256 280q-51 0 -95.5 -16.5t-83.5 -52t-64 -98t-29 -146.5zM643 1354q0 110 107 110q94 0 94 -108q0 -109 -101 -109q-50 0 -75 25.5t-25 81.5z" />
<glyph unicode="&#xec;" horiz-adv-x="499" d="M-23 1487l168 82l236 -350l-88 -50zM152 0v1044h194v-1044h-194z" />
<glyph unicode="&#xed;" horiz-adv-x="499" d="M111 1221l245 342l164 -76l-319 -313zM152 0v1044h194v-1044h-194z" />
<glyph unicode="&#xee;" horiz-adv-x="499" d="M-47 1217l233 311h127l230 -307l-80 -58l-217 219l-217 -219zM152 0v1044h194v-1044h-194z" />
<glyph unicode="&#xef;" horiz-adv-x="499" d="M-37 1354q0 110 105 110q96 0 96 -108q0 -109 -101 -109q-50 0 -75 25.5t-25 81.5zM152 0v1044h194v-1044h-194zM334 1354q0 110 106 110q95 0 95 -108q0 -109 -101 -109q-50 0 -75 25.5t-25 81.5z" />
<glyph unicode="&#xf0;" horiz-adv-x="1142" d="M82 494q0 255 129.5 397.5t347.5 142.5q76 0 152 -29.5t118 -89.5q-21 95 -65.5 180.5t-104.5 141.5l-270 -147l-55 98l225 123q-108 60 -254 88l33 131q218 -36 379 -125l192 108l58 -98l-160 -86q252 -247 252 -760q0 -284 -130 -439t-384 -155q-221 0 -342 134 t-121 385zM279 492q0 -190 79 -290t220 -100q73 0 125.5 21.5t83.5 57t49 92t24 115.5t6 140q0 190 -78 285.5t-217 95.5q-157 0 -224.5 -105t-67.5 -312z" />
<glyph unicode="&#xf1;" horiz-adv-x="1175" d="M150 1036l176 17q17 -59 26 -135q83 65 201 108t205 43q103 0 167 -37t89 -125q18 -66 18 -256v-651h-194v623v28v50t-1 43.5t-3.5 40.5t-6.5 33.5t-11 30t-16.5 23t-23 19.5t-31 12.5t-39.5 9t-49 2.5q-62 0 -146 -23.5t-118 -53.5q-22 -21 -27.5 -51.5t-5.5 -112.5 v-674h-194v510q0 294 -16 526zM270 1251q77 207 201 207q51 0 150 -55q72 -37 106 -37t55.5 23.5t48.5 76.5l87 -34q-44 -111 -88 -160t-105 -49q-57 0 -147 49q-89 47 -115 47q-62 0 -107 -102z" />
<glyph unicode="&#xf2;" horiz-adv-x="1144" d="M82 510q0 271 138 416t376 145q243 0 354 -125t111 -407q0 -271 -131.5 -417.5t-376.5 -146.5q-471 0 -471 535zM281 553q0 -451 292 -451q151 0 221 94t70 304q0 61 -3.5 109t-13.5 102t-29.5 93t-49.5 71.5t-76.5 49.5t-107.5 17q-148 0 -225.5 -91t-77.5 -298z M285 1487l168 82l235 -350l-88 -50z" />
<glyph unicode="&#xf3;" horiz-adv-x="1144" d="M82 510q0 271 138 416t376 145q243 0 354 -125t111 -407q0 -271 -131.5 -417.5t-376.5 -146.5q-471 0 -471 535zM281 553q0 -451 292 -451q151 0 221 94t70 304q0 61 -3.5 109t-13.5 102t-29.5 93t-49.5 71.5t-76.5 49.5t-107.5 17q-148 0 -225.5 -91t-77.5 -298z M436 1221l246 342l164 -76l-320 -313z" />
<glyph unicode="&#xf4;" horiz-adv-x="1144" d="M82 510q0 271 138 416t376 145q243 0 354 -125t111 -407q0 -271 -131.5 -417.5t-376.5 -146.5q-471 0 -471 535zM268 1217l234 311h127l229 -307l-80 -58l-217 219l-217 -219zM281 553q0 -451 292 -451q151 0 221 94t70 304q0 61 -3.5 109t-13.5 102t-29.5 93t-49.5 71.5 t-76.5 49.5t-107.5 17q-148 0 -225.5 -91t-77.5 -298z" />
<glyph unicode="&#xf5;" horiz-adv-x="1144" d="M82 510q0 271 138 416t376 145q243 0 354 -125t111 -407q0 -271 -131.5 -417.5t-376.5 -146.5q-471 0 -471 535zM248 1251q77 207 201 207q50 0 149 -55q72 -37 107 -37q34 0 55.5 23.5t48.5 76.5l86 -34q-44 -111 -88 -160t-105 -49q-57 0 -147 49q-89 47 -115 47 q-61 0 -106 -102zM281 553q0 -451 292 -451q151 0 221 94t70 304q0 61 -3.5 109t-13.5 102t-29.5 93t-49.5 71.5t-76.5 49.5t-107.5 17q-148 0 -225.5 -91t-77.5 -298z" />
<glyph unicode="&#xf6;" horiz-adv-x="1144" d="M82 510q0 271 138 416t376 145q243 0 354 -125t111 -407q0 -271 -131.5 -417.5t-376.5 -146.5q-471 0 -471 535zM279 1354q0 110 104 110q96 0 96 -108q0 -109 -100 -109q-50 0 -75 25.5t-25 81.5zM281 553q0 -451 292 -451q151 0 221 94t70 304q0 61 -3.5 109t-13.5 102 t-29.5 93t-49.5 71.5t-76.5 49.5t-107.5 17q-148 0 -225.5 -91t-77.5 -298zM649 1354q0 110 107 110q94 0 94 -108q0 -109 -100 -109q-101 0 -101 107z" />
<glyph unicode="&#xf7;" horiz-adv-x="1497" d="M193 553v154h1112v-154h-1112zM643 262q0 113 111 113q100 0 100 -111q0 -114 -106 -114q-105 0 -105 112zM643 989q0 115 111 115q100 0 100 -113q0 -112 -106 -112q-53 0 -79 26t-26 84z" />
<glyph unicode="&#xf8;" horiz-adv-x="1144" d="M82 510q0 271 138 416t376 145q148 0 248 -47l102 150l80 -50l-104 -151q139 -122 139 -434q0 -271 -131.5 -417.5t-376.5 -146.5q-154 0 -260 62l-98 -146l-82 50l104 151q-135 135 -135 418zM276 553q0 -180 54 -285l426 619q-67 57 -172 57q-150 0 -229 -92t-79 -299z M381 174q72 -72 192 -72q152 0 222.5 94t70.5 304q0 207 -55 299z" />
<glyph unicode="&#xf9;" horiz-adv-x="1175" d="M143 397v647h195v-622q0 -147 14 -197q27 -98 187 -98q61 0 134.5 24t108.5 56q22 21 27.5 51.5t5.5 112.5v673h195v-509q0 -298 16 -527l-176 -16q-14 58 -27 133q-84 -68 -189 -109t-192 -41q-104 0 -178.5 41.5t-99.5 128.5q-21 80 -21 252zM291 1491l168 82l235 -350 l-88 -49z" />
<glyph unicode="&#xfa;" horiz-adv-x="1175" d="M143 397v647h195v-622q0 -147 14 -197q27 -98 187 -98q61 0 134.5 24t108.5 56q22 21 27.5 51.5t5.5 112.5v673h195v-509q0 -298 16 -527l-176 -16q-14 58 -27 133q-84 -68 -189 -109t-192 -41q-104 0 -178.5 41.5t-99.5 128.5q-21 80 -21 252zM459 1221l246 342l163 -76 l-319 -313z" />
<glyph unicode="&#xfb;" horiz-adv-x="1175" d="M143 397v647h195v-622q0 -147 14 -197q27 -98 187 -98q61 0 134.5 24t108.5 56q22 21 27.5 51.5t5.5 112.5v673h195v-509q0 -298 16 -527l-176 -16q-14 58 -27 133q-84 -68 -189 -109t-192 -41q-104 0 -178.5 41.5t-99.5 128.5q-21 80 -21 252zM289 1217l233 311h127 l230 -307l-80 -58l-217 219l-217 -219z" />
<glyph unicode="&#xfc;" horiz-adv-x="1175" d="M143 397v647h195v-622q0 -147 14 -197q27 -98 187 -98q61 0 134.5 24t108.5 56q22 21 27.5 51.5t5.5 112.5v673h195v-509q0 -298 16 -527l-176 -16q-14 58 -27 133q-84 -68 -189 -109t-192 -41q-104 0 -178.5 41.5t-99.5 128.5q-21 80 -21 252zM287 1354q0 110 104 110 q96 0 96 -108q0 -109 -100 -109q-50 0 -75 25.5t-25 81.5zM657 1354q0 110 107 110q94 0 94 -108q0 -109 -100 -109q-101 0 -101 107z" />
<glyph unicode="&#xfd;" horiz-adv-x="1019" d="M10 1036l207 17q240 -705 293 -883q93 285 315 883l179 -17l-377 -989q-121 -315 -211 -401q-93 -90 -246 -90q-70 0 -125 10l21 135q58 -4 92 -4q53 0 89.5 19t71.5 61q61 75 109 223h-43zM399 1221l246 342l164 -76l-320 -313z" />
<glyph unicode="&#xfe;" horiz-adv-x="1167" d="M152 -432v1960h194v-602q71 58 179 100.5t198 42.5q191 0 276.5 -130.5t85.5 -412.5q0 -262 -121.5 -403t-316.5 -141q-175 0 -301 77v-491h-194zM344 358q0 -69 8 -103t27 -56q29 -31 98.5 -57.5t128.5 -26.5q67 0 114 16.5t86 58.5t58 123t19 201q0 410 -236 410 q-83 0 -164.5 -30.5t-107.5 -72.5q-31 -54 -31 -151v-312z" />
<glyph unicode="&#xff;" horiz-adv-x="1019" d="M10 1036l207 17q240 -705 293 -883q93 285 315 883l179 -17l-377 -989q-121 -315 -211 -401q-93 -90 -246 -90q-70 0 -125 10l21 135q58 -4 92 -4q53 0 89.5 19t71.5 61q61 75 109 223h-43zM229 1354q0 110 105 110q96 0 96 -108q0 -109 -100 -109q-101 0 -101 107z M600 1354q0 110 107 110q94 0 94 -108q0 -109 -101 -109q-50 0 -75 25.5t-25 81.5z" />
<glyph unicode="&#x152;" horiz-adv-x="2021" d="M100 715q0 163 34.5 292t95.5 215.5t148.5 143.5t189.5 82t223 25q110 0 272 -27h838l-25 -152h-610v-469h581v-149h-581v-524h706l-26 -152h-881q-153 -29 -293 -29q-165 0 -287 40.5t-209.5 128t-131.5 231.5t-44 344zM307 725q0 -165 34 -283.5t101 -190t158 -105 t211 -33.5q137 0 252 39v1146q-129 33 -281 33q-116 0 -201 -31t-148 -101t-94.5 -188t-31.5 -286z" />
<glyph unicode="&#x153;" horiz-adv-x="1847" d="M84 510q0 271 138 416t376 145q148 0 241 -49.5t140 -153.5q57 99 156.5 151t216.5 52q258 0 354 -186q33 -66 48 -141t18 -201l-715 -17q3 -395 325 -395q164 0 336 78l45 -103q-222 -131 -430 -131q-133 0 -229 55t-148 154q-120 -209 -393 -209q-479 0 -479 535z M281 553q0 -451 294 -451q291 0 291 398q0 61 -3.5 109t-13.5 102t-29.5 93t-49.5 71.5t-76.5 49.5t-107.5 17q-149 0 -227 -91t-78 -298zM1059 631l524 33q-16 280 -256 280q-108 0 -183 -75t-85 -238z" />
<glyph unicode="&#x178;" horiz-adv-x="1273" d="M14 1438l236 16q198 -332 276 -466.5t125 -227.5q109 195 414 694l197 -16l-531 -856v-582h-203v582zM346 1683q0 111 105 111q49 0 72.5 -26t23.5 -82q0 -109 -101 -109q-51 0 -75.5 25t-24.5 81zM743 1683q0 111 105 111q49 0 72.5 -26t23.5 -82q0 -109 -100 -109 q-52 0 -76.5 25t-24.5 81z" />
<glyph unicode="&#x2c6;" horiz-adv-x="430" d="M-80 1217l234 311h127l229 -307l-80 -58l-217 219l-217 -219z" />
<glyph unicode="&#x2dc;" horiz-adv-x="430" d="M-109 1251q77 207 201 207q51 0 150 -55q72 -37 106 -37t56 24t49 76l86 -34q-44 -111 -88 -160t-105 -49q-57 0 -147 49q-89 47 -115 47q-62 0 -107 -102z" />
<glyph unicode="&#x2000;" horiz-adv-x="961" />
<glyph unicode="&#x2001;" horiz-adv-x="1923" />
<glyph unicode="&#x2002;" horiz-adv-x="961" />
<glyph unicode="&#x2003;" horiz-adv-x="1923" />
<glyph unicode="&#x2004;" horiz-adv-x="641" />
<glyph unicode="&#x2005;" horiz-adv-x="480" />
<glyph unicode="&#x2006;" horiz-adv-x="320" />
<glyph unicode="&#x2007;" horiz-adv-x="320" />
<glyph unicode="&#x2008;" horiz-adv-x="240" />
<glyph unicode="&#x2009;" horiz-adv-x="384" />
<glyph unicode="&#x200a;" horiz-adv-x="106" />
<glyph unicode="&#x2010;" horiz-adv-x="718" d="M80 532v166h559v-166h-559z" />
<glyph unicode="&#x2011;" horiz-adv-x="718" d="M80 532v166h559v-166h-559z" />
<glyph unicode="&#x2012;" horiz-adv-x="718" d="M80 532v166h559v-166h-559z" />
<glyph unicode="&#x2013;" horiz-adv-x="1101" d="M80 537v157h942v-157h-942z" />
<glyph unicode="&#x2014;" horiz-adv-x="2027" d="M80 537v157h1868v-157h-1868z" />
<glyph unicode="&#x2018;" horiz-adv-x="374" d="M66 985q0 149 55.5 285.5t122.5 220.5l96 -31q-48 -95 -71 -204.5t-23 -270.5h-180z" />
<glyph unicode="&#x2019;" horiz-adv-x="374" d="M35 1004q48 95 72 204.5t24 268.5h178q0 -147 -55.5 -283.5t-122.5 -222.5z" />
<glyph unicode="&#x201a;" horiz-adv-x="374" d="M35 -205q49 96 72.5 206.5t23.5 268.5h178q0 -148 -55.5 -283.5t-122.5 -222.5z" />
<glyph unicode="&#x201c;" horiz-adv-x="681" d="M66 985q0 149 55.5 285.5t122.5 220.5l96 -31q-48 -95 -71 -204.5t-23 -270.5h-180zM373 985q0 149 55.5 285.5t122.5 220.5l96 -31q-49 -95 -72.5 -204.5t-23.5 -270.5h-178z" />
<glyph unicode="&#x201d;" horiz-adv-x="681" d="M35 1004q48 95 72 204.5t24 268.5h178q0 -147 -55.5 -283.5t-122.5 -222.5zM342 1004q48 93 71 203t23 270h180q0 -148 -56 -284.5t-124 -221.5z" />
<glyph unicode="&#x201e;" horiz-adv-x="681" d="M35 -205q49 96 72.5 206.5t23.5 268.5h178q0 -148 -55.5 -283.5t-122.5 -222.5zM342 -205q48 95 71 205t23 270h180q0 -149 -56 -285t-124 -221z" />
<glyph unicode="&#x2022;" horiz-adv-x="653" d="M74 575q0 132 69.5 197.5t192.5 65.5q244 0 244 -254q0 -131 -66 -196.5t-188 -65.5q-123 0 -187.5 60.5t-64.5 192.5z" />
<glyph unicode="&#x2026;" horiz-adv-x="2168" d="M250 100q0 119 117 119q106 0 106 -115q0 -118 -113 -118q-110 0 -110 114zM973 100q0 119 117 119q106 0 106 -115q0 -118 -113 -118q-110 0 -110 114zM1696 100q0 119 116 119q107 0 107 -115q0 -118 -113 -118q-110 0 -110 114z" />
<glyph unicode="&#x202f;" horiz-adv-x="384" />
<glyph unicode="&#x2039;" horiz-adv-x="647" d="M117 483v99l401 374l55 -63l-305 -350l307 -367l-57 -70z" />
<glyph unicode="&#x203a;" horiz-adv-x="647" d="M74 170l305 352l-305 365l57 69l399 -374v-99l-399 -377z" />
<glyph unicode="&#x205f;" horiz-adv-x="480" />
<glyph unicode="&#x20ac;" horiz-adv-x="1288" d="M147 508v106h129v58q0 23 5 125h-134v106h146q23 137 75.5 238.5t129 162t169 89t203.5 28.5q170 0 353 -49l-35 -151q-150 47 -326 47q-166 0 -258 -85.5t-121 -279.5h518v-106h-528q-2 -33 -2 -101q0 -55 2 -82h528v-106h-518q56 -385 385 -385q165 0 340 96l49 -127 q-212 -121 -415 -121q-108 0 -197.5 27.5t-165.5 88t-126 167t-68 254.5h-138z" />
<glyph unicode="&#x2122;" horiz-adv-x="1810" d="M78 1348l14 98h621v-98h-250v-672h-137v672h-248zM815 680l47 766h170q176 -471 198 -542q8 -24 15 -50q28 91 209 592h174l47 -764l-133 -8q-32 483 -39 635q-37 -139 -221 -627h-100q-59 156 -101.5 273.5t-58 163t-36.5 109t-25 75.5q-4 -79 -35 -627z" />
</font>
</defs>
</svg>
