<?xml version="1.0" standalone="no"?>
<!DOCTYPE svg PUBLIC "-//W3C//DTD SVG 1.1//EN" "http://www.w3.org/Graphics/SVG/1.1/DTD/svg11.dtd" >
<svg xmlns="http://www.w3.org/2000/svg">
<metadata></metadata>
<defs>
<font id="ImparaMediumItalic" horiz-adv-x="1218" >
<font-face units-per-em="2048" ascent="1567" descent="-481" />
<missing-glyph horiz-adv-x="409" />
<glyph unicode="&#xfb01;" horiz-adv-x="1249" d="M86 0l190 872h-172l33 138l174 30l27 107q54 214 139 293q124 114 332 114q77 0 154 -18l-50 -170q-72 14 -114 14q-80 0 -117 -32q-28 -22 -48.5 -75.5t-43.5 -154.5l-21 -84h627l-227 -1034h-262l194 872h-366l-189 -872h-260zM985 1333q0 87 47.5 129.5t122.5 42.5 q59 0 91 -32.5t32 -86.5q0 -78 -42 -122.5t-124 -44.5q-61 0 -94 30.5t-33 83.5z" />
<glyph unicode="&#xfb02;" horiz-adv-x="1234" d="M86 0l190 872h-172l33 138l174 30l27 107q53 210 143 291q124 114 359 114q197 0 456 -57l-327 -1495h-262l303 1366q-110 18 -187 18q-95 0 -139 -36q-29 -23 -50.5 -76.5t-43.5 -153.5l-21 -84h244l-33 -162h-245l-189 -872h-260z" />
<glyph unicode="&#xfb03;" horiz-adv-x="1873" d="M86 0l190 872h-172l33 138l174 30l17 70q53 210 143 291q128 115 332 115q119 0 194 -23l-55 -168q-80 18 -147 18q-83 0 -119 -34q-55 -49 -94 -219l-13 -56h365l29 113q54 214 139 293q124 114 332 114q84 0 161 -18l-51 -170q-96 14 -121 14q-76 0 -116 -32 q-28 -22 -49 -76t-44 -154l-20 -84h627l-228 -1034h-260l193 872h-367l-188 -872h-260l190 872h-366l-189 -872h-260zM1610 1333q0 87 47.5 129.5t122.5 42.5q59 0 91 -32.5t32 -86.5q0 -78 -42 -122.5t-124 -44.5q-61 0 -94 30.5t-33 83.5z" />
<glyph unicode="&#xfb04;" horiz-adv-x="1859" d="M86 0l190 872h-172l33 138l174 30l17 70q53 210 143 291q128 115 332 115q112 0 194 -23l-55 -168q-80 18 -147 18q-83 0 -119 -34q-55 -49 -94 -219l-13 -56h365l29 113q53 210 143 291q124 114 358 114q181 0 457 -57l-328 -1495h-260l301 1368q-110 18 -186 18 q-93 0 -139 -38q-53 -42 -95 -230l-20 -84h244l-33 -162h-246l-188 -872h-260l190 872h-366l-189 -872h-260z" />
<glyph horiz-adv-x="0" />
<glyph horiz-adv-x="2048" />
<glyph unicode=" "  horiz-adv-x="409" />
<glyph unicode="&#x09;" horiz-adv-x="409" />
<glyph unicode="&#xa0;" horiz-adv-x="409" />
<glyph unicode="!" horiz-adv-x="598" d="M115 111q0 94 50 139t124 45q57 0 92 -36t35 -95q0 -81 -45 -130.5t-129 -49.5q-60 0 -93.5 35.5t-33.5 91.5zM217 455q145 896 164 991h299q-23 -117 -262 -991h-201z" />
<glyph unicode="&#x22;" horiz-adv-x="778" d="M213 907l66 580h239l-182 -580h-123zM582 907l63 580h240l-178 -580h-125z" />
<glyph unicode="#" horiz-adv-x="1290" d="M88 416l33 200h303l59 195h-280l33 201h307l121 401h106l-121 -401h273l120 401h107l-121 -401h272l-30 -201h-301l-60 -195h281l-31 -200h-309l-131 -436h-107l131 436h-272l-131 -436h-107l132 436h-277zM530 616h273l59 195h-272z" />
<glyph unicode="$" horiz-adv-x="1134" d="M-10 88l84 182q195 -91 356 -94l88 412l-78 49q-111 68 -168 143.5t-57 177.5q0 183 129 296.5t344 134.5l41 186h111l-39 -182q144 -5 307 -54l-70 -188q-175 48 -276 53l-84 -389l51 -33q140 -89 207.5 -169t67.5 -173q0 -188 -126.5 -303.5t-373.5 -138.5l-39 -191 h-113l39 185q-104 0 -217.5 27t-183.5 69zM483 1034q0 -98 97 -160l69 326q-166 -24 -166 -166zM545 184q176 30 176 189q0 81 -105 151z" />
<glyph unicode="%" horiz-adv-x="1800" d="M121 786q0 111 34 238.5t97 218.5q111 164 299 164q145 0 218 -65t73 -205q0 -103 -34.5 -239t-98.5 -228q-108 -162 -293 -162q-145 0 -220 67t-75 211zM303 782q0 -83 30.5 -118t88.5 -35q54 0 88.5 25.5t60.5 84.5q35 77 60.5 205t25.5 201q0 75 -27 108t-93 33 q-90 0 -144 -106q-38 -75 -64 -195t-26 -203zM391 25l971 1390l100 -61l-966 -1393zM1014 252q0 111 34 238.5t97 218.5q110 163 299 163q145 0 218 -65t73 -205q0 -103 -34.5 -239t-98.5 -228q-108 -162 -293 -162q-295 0 -295 279zM1196 248q0 -83 30.5 -118.5t88.5 -35.5 q54 0 88.5 26t60.5 85q35 77 60.5 204.5t25.5 200.5q0 75 -27 108.5t-93 33.5q-89 0 -144 -107q-38 -75 -64 -194.5t-26 -202.5z" />
<glyph unicode="&#x26;" horiz-adv-x="1699" d="M66 348q0 84 26.5 151.5t69 112t105 78t123 52.5t134.5 32q-120 29 -175.5 105t-55.5 170q0 87 33.5 157.5t90.5 118t135.5 79.5t165.5 46t183 14q186 0 340 -61l-76 -178q-163 55 -313 55q-152 0 -224.5 -58.5t-72.5 -179.5q0 -79 62.5 -137t173.5 -59l-35 -172 q-78 -3 -136.5 -12t-112 -28.5t-87.5 -50t-54 -79t-20 -113.5q0 -108 91 -173.5t227 -65.5q100 0 181.5 22.5t146 70t100.5 129.5t36 193v33q-115 -8 -286 -8l37 182q313 6 479 48t287 132q93 -160 100 -172q-136 -117 -399 -161q12 -58 12 -97q0 -113 -43.5 -206.5 t-115.5 -156.5t-168 -107t-197.5 -63.5t-206.5 -19.5q-162 0 -288 43.5t-199.5 130t-73.5 203.5z" />
<glyph unicode="'" horiz-adv-x="411" d="M213 907l66 580h239l-182 -580h-123z" />
<glyph unicode="(" horiz-adv-x="686" d="M94 354q0 215 55 404.5t155 339.5t231 267t294 204l64 -92q-273 -209 -415 -514.5t-142 -659.5q0 -191 50.5 -366t123.5 -271l-86 -84q-144 107 -237 315t-93 457z" />
<glyph unicode=")" horiz-adv-x="686" d="M-203 -328q275 208 417 514t142 660q0 192 -51 366.5t-125 270.5l88 84q144 -107 237 -315t93 -457q0 -215 -55 -404.5t-155.5 -339.5t-232 -267t-294.5 -204z" />
<glyph unicode="*" horiz-adv-x="870" d="M160 1180l84 151q27 -15 53.5 -30.5t55 -34.5t46 -31t50 -35.5t45.5 -32.5q12 194 30 293l176 -26q-23 -116 -84 -293q172 44 297 61l19 -178q-41 -4 -91 -6t-113.5 -3.5t-96.5 -2.5q97 -143 151 -256l-161 -74q-49 105 -105 279q-13 -15 -47 -54.5t-53.5 -62 t-48.5 -52.5t-52 -51l-125 127q94 89 240 187q-132 54 -270 125z" />
<glyph unicode="+" horiz-adv-x="1497" d="M195 537l38 186h457l98 461h199l-98 -461h457l-39 -186h-457l-98 -463h-197l98 463h-458z" />
<glyph unicode="," horiz-adv-x="497" d="M-129 -276q79 124 128.5 260t82.5 329h258q-15 -96 -55 -195.5t-93 -183t-101 -146.5t-97 -114z" />
<glyph unicode="-" horiz-adv-x="741" d="M72 516l41 199h575l-41 -199h-575z" />
<glyph unicode="." horiz-adv-x="497" d="M20 111q0 94 51 140t126 46q55 0 90 -37t35 -96q0 -81 -45 -130.5t-130 -49.5q-59 0 -93 36t-34 91z" />
<glyph unicode="/" horiz-adv-x="751" d="M-139 -70l964 1592l123 -72l-964 -1591z" />
<glyph unicode="0" d="M78 414q0 171 50 366t140 344q62 102 144 169t166 95.5t176 28.5q224 0 339 -102t115 -326q0 -168 -48.5 -369t-137.5 -354q-170 -295 -487 -295q-457 0 -457 443zM350 399q0 -140 50.5 -200t154.5 -60q84 0 143 46t101 147q54 132 98.5 344t44.5 330q0 124 -49.5 182.5 t-153.5 58.5q-160 0 -243 -180q-61 -130 -103.5 -328.5t-42.5 -339.5z" />
<glyph unicode="1" d="M309 1188q71 35 214.5 102.5t199.5 95.5h231l-295 -1386h-272l248 1145q-36 -12 -139.5 -49t-161.5 -56z" />
<glyph unicode="2" d="M-27 0l33 160q341 240 551 428q138 124 197 223t59 199q0 93 -58 151t-173 58q-137 0 -316 -54l-33 158q99 38 224.5 67t220.5 29q214 0 321 -92t107 -250q0 -262 -248 -489q-195 -179 -536 -383q188 2 706 2l-70 -207h-985z" />
<glyph unicode="3" d="M-14 47l71 162q163 -57 355 -57q162 0 238.5 77t76.5 203q0 196 -350 199l35 170q100 0 174.5 15t118.5 39t71 59.5t36 71.5t9 81q0 80 -55 122t-150 42q-140 0 -319 -45l-25 153q97 36 213 58t205 22q197 0 300.5 -83t103.5 -222q0 -143 -91 -246t-262 -139 q119 -18 196 -94.5t77 -188.5q0 -116 -49 -208t-135 -149.5t-197 -87.5t-240 -30q-200 0 -407 76z" />
<glyph unicode="4" d="M27 338l34 156l785 892h278l-184 -866h219l-67 -182h-189l-72 -338h-266l72 338h-610zM281 520h391q111 499 139 619q-94 -121 -199 -244.5t-331 -374.5z" />
<glyph unicode="5" d="M25 41l69 166q159 -49 342 -49q167 0 261 85.5t94 239.5q0 105 -69.5 159t-174.5 54q-164 0 -346 -39l219 729h751l-63 -202h-567l-109 -332q104 31 256 31q173 0 277 -88.5t104 -247.5q0 -120 -33.5 -217.5t-92.5 -164t-141 -111.5t-176.5 -65t-201.5 -20q-88 0 -202 20 t-197 52z" />
<glyph unicode="6" d="M125 434q0 205 53.5 386t149.5 314.5t237 211t307 77.5q199 0 326 -43l-59 -168q-115 33 -254 33q-174 0 -282 -109.5t-175 -359.5q56 58 146.5 92.5t179.5 34.5q171 0 268.5 -93.5t97.5 -258.5q0 -278 -145.5 -429t-403.5 -151q-208 0 -327 118t-119 345zM381 377 q0 -104 51 -174t150 -70q81 0 139.5 35.5t89 96t44 126t13.5 139.5q0 91 -51.5 148t-144.5 57q-140 0 -219 -92q-72 -84 -72 -266z" />
<glyph unicode="7" d="M195 14q346 579 761 1166h-753l73 206h941l-35 -174q-388 -623 -744 -1257z" />
<glyph unicode="8" d="M66 319q0 153 101 267t275 149q-94 34 -141 106.5t-47 166.5q0 187 136.5 294t348.5 107q228 0 343.5 -85.5t115.5 -231.5q0 -145 -86 -243.5t-238 -135.5q100 -34 160 -114.5t60 -184.5q0 -139 -73.5 -241.5t-192 -153t-263.5 -50.5q-243 0 -371 94.5t-128 255.5z M342 332q0 -94 62 -147.5t167 -53.5q124 0 190 86.5t66 210.5q0 99 -64.5 150t-168.5 51q-108 0 -180 -78.5t-72 -218.5zM506 977q0 -80 50.5 -126t139.5 -46q112 0 174 80t62 186q0 78 -49.5 125t-157.5 47q-109 0 -164 -77t-55 -189z" />
<glyph unicode="9" d="M74 12l59 170q119 -35 262 -35q176 0 281 110.5t172 358.5q-56 -58 -144.5 -91t-179.5 -33q-170 0 -269 93t-99 257q0 278 145.5 428.5t403.5 150.5q207 0 325.5 -118t118.5 -345q0 -204 -51.5 -384.5t-144.5 -314.5t-233.5 -212t-309.5 -78q-198 0 -336 43zM408 864 q0 -92 51.5 -149.5t144.5 -57.5q139 0 221 95q70 82 70 264q0 105 -50.5 174.5t-150.5 69.5q-81 0 -139.5 -35.5t-89 -96t-44 -125.5t-13.5 -139z" />
<glyph unicode=":" horiz-adv-x="544" d="M68 111q0 95 50.5 140.5t125.5 45.5q55 0 90 -37t35 -96q0 -81 -44.5 -130.5t-129.5 -49.5q-59 0 -93 36t-34 91zM236 860q0 95 49.5 139.5t124.5 44.5q56 0 90.5 -36.5t34.5 -94.5q0 -81 -44.5 -130.5t-128.5 -49.5q-60 0 -93 35.5t-33 91.5z" />
<glyph unicode=";" horiz-adv-x="544" d="M-82 -276q79 124 128.5 260t82.5 329h258q-15 -96 -55 -195.5t-93.5 -183.5t-101.5 -146t-96 -114zM236 860q0 95 49.5 139.5t124.5 44.5q56 0 90.5 -36.5t34.5 -94.5q0 -81 -44.5 -130.5t-128.5 -49.5q-60 0 -93 35.5t-33 91.5z" />
<glyph unicode="&#x3c;" horiz-adv-x="1497" d="M227 524l43 209l1082 479l-49 -231l-859 -363l707 -352l-43 -213z" />
<glyph unicode="=" horiz-adv-x="1497" d="M150 322l38 190h1110l-38 -190h-1110zM238 743l38 191h1110l-38 -191h-1110z" />
<glyph unicode="&#x3e;" horiz-adv-x="1497" d="M184 53l49 234l861 362l-707 352l43 209l881 -469l-43 -211z" />
<glyph unicode="?" horiz-adv-x="917" d="M172 111q0 95 49.5 140.5t124.5 45.5q56 0 91.5 -37.5t35.5 -95.5q0 -81 -45 -130.5t-129 -49.5q-60 0 -93.5 35.5t-33.5 91.5zM225 1391q96 29 205.5 46t179.5 17q180 0 278.5 -72.5t98.5 -207.5q0 -136 -73.5 -242.5t-260.5 -233.5q-87 -58 -126 -112.5t-58 -128.5 h-197q22 112 58.5 179.5t132.5 133.5q126 87 181.5 167t55.5 171q0 75 -49.5 116.5t-130.5 41.5q-118 0 -278 -41z" />
<glyph unicode="@" horiz-adv-x="1728" d="M111 403q0 200 70.5 375t193.5 299t294.5 195t366.5 71q282 0 445.5 -151t163.5 -408q0 -165 -74 -316t-194 -242t-249 -91q-163 0 -163 164q0 29 2 45q-80 -96 -170 -153.5t-176 -57.5q-79 0 -122.5 46t-43.5 140q0 71 22 155.5t67.5 171.5t107 158.5t150 117 t187.5 45.5q76 0 164 -27l27 47l159 -12q-32 -73 -86 -244l-63 -207q-43 -141 -43 -194q0 -60 63 -60t127 67t108 186t44 251q0 203 -122 329t-349 126q-146 0 -279 -58t-234.5 -161.5t-161.5 -258t-60 -335.5q0 -248 154 -397.5t411 -149.5q159 0 285 30.5t268 92.5 l41 -103q-133 -68 -295 -108.5t-332 -40.5q-324 0 -514 182t-190 481zM662 375q0 -90 71 -90q50 0 108.5 40.5t94.5 86.5q49 64 84 170l41 127q18 57 18 98q0 21 -28 36t-78 15q-77 0 -121 -37q-79 -63 -134.5 -206t-55.5 -240z" />
<glyph unicode="A" horiz-adv-x="1388" d="M-82 8l836 1438h317l193 -1438l-285 -16l-47 399h-520l-232 -399zM508 575h405q-12 104 -27.5 233t-20.5 174t-10.5 98.5t-8.5 97.5q-48 -95 -338 -603z" />
<glyph unicode="B" horiz-adv-x="1345" d="M59 10l306 1426q254 16 421 16q510 0 510 -305q0 -163 -85.5 -253.5t-243.5 -131.5q123 -21 197.5 -97.5t74.5 -191.5q0 -229 -189 -355t-534 -126q-218 0 -457 18zM371 188q84 -8 196 -8q190 0 287.5 66t97.5 221q0 85 -69.5 137.5t-227.5 52.5q-119 0 -180 -2zM512 844 q59 -2 141 -2q84 0 143 10t111 36t78.5 78t26.5 130q0 80 -65.5 128t-186.5 48q-70 0 -156 -6z" />
<glyph unicode="C" horiz-adv-x="1288" d="M119 508q0 399 207 670q110 146 269.5 223.5t356.5 77.5q188 0 391 -56l-63 -198q-193 61 -344 61q-266 0 -399 -211q-64 -104 -99 -243t-35 -271q0 -191 82.5 -295t249.5 -104q175 0 387 94l43 -154q-276 -133 -520 -133q-248 0 -387 137.5t-139 401.5z" />
<glyph unicode="D" horiz-adv-x="1474" d="M59 8l306 1426q200 18 413 18q243 0 385 -63q137 -59 208 -180.5t71 -284.5q0 -135 -26.5 -258.5t-82 -236.5t-152 -204.5t-225.5 -148.5q-187 -84 -524 -84q-161 0 -373 16zM371 186q68 -6 184 -6q228 0 350 92q117 79 184.5 256.5t67.5 362.5q0 225 -110 309 q-95 74 -269 74q-88 0 -174 -8z" />
<glyph unicode="E" horiz-adv-x="1157" d="M59 0l310 1446h841l-71 -195h-535l-90 -407h522l-39 -193h-522l-102 -456h678l-70 -195h-922z" />
<glyph unicode="F" horiz-adv-x="1089" d="M59 0l310 1446h860l-74 -197h-551l-94 -428h514l-39 -194h-514l-135 -627h-277z" />
<glyph unicode="G" horiz-adv-x="1466" d="M119 508q0 394 213 674q227 297 653 297q191 0 418 -62l-64 -200q-83 27 -190 47t-197 20q-264 0 -399 -194q-69 -100 -109.5 -243t-40.5 -282q0 -208 89.5 -306.5t240.5 -98.5q126 0 238 51q34 19 47 82l61 280h-313l39 191h569l-160 -764h-192l-10 68 q-182 -99 -367 -99q-249 0 -387.5 140.5t-138.5 398.5z" />
<glyph unicode="H" horiz-adv-x="1509" d="M59 0l310 1446h278l-131 -600h614l130 600h276l-309 -1446h-277l142 647h-615l-141 -647h-277z" />
<glyph unicode="I" horiz-adv-x="622" d="M59 0l310 1446h282l-311 -1446h-281z" />
<glyph unicode="J" horiz-adv-x="882" d="M-104 8l65 182q105 -30 217 -30q120 0 176 73q27 34 46 91t40 153l207 969h277l-201 -959q-28 -128 -57.5 -209t-73.5 -137q-138 -174 -442 -174q-119 0 -254 41z" />
<glyph unicode="K" horiz-adv-x="1357" d="M59 0l312 1446h278l-143 -664q53 23 86 56l608 628l287 -47q-400 -388 -705 -667q54 -79 134 -209t319 -531l-295 -26l-397 667q-19 32 -51 60l-154 -713h-279z" />
<glyph unicode="L" horiz-adv-x="1058" d="M59 0l310 1446h276l-270 -1249h600l-68 -197h-848z" />
<glyph unicode="M" horiz-adv-x="1839" d="M27 6l387 1440h368q70 -771 82 -1120q267 529 580 1120h373l-218 -1440l-280 -12q167 1027 197 1188q-81 -177 -198 -404t-411 -778h-248q-61 669 -94 1190q-84 -350 -311 -1196z" />
<glyph unicode="N" horiz-adv-x="1521" d="M59 0l312 1446h329q315 -817 406 -1077q66 353 225 1077h225l-311 -1446h-276q-334 878 -428 1159q-38 -218 -246 -1159h-236z" />
<glyph unicode="O" horiz-adv-x="1480" d="M115 477q0 418 204 711q98 142 246.5 216.5t323.5 74.5q563 0 563 -506q0 -175 -49.5 -368t-145.5 -335q-202 -299 -579 -299q-271 0 -417 128t-146 378zM401 487q0 -171 78 -256.5t221 -85.5q115 0 188.5 53.5t135.5 174.5q61 118 99 293.5t38 306.5q0 161 -70.5 244 t-230.5 83q-183 0 -299 -190q-72 -119 -116 -293.5t-44 -329.5z" />
<glyph unicode="P" horiz-adv-x="1286" d="M59 0l310 1436q220 18 460 18q117 0 207 -19t146.5 -50t92.5 -76.5t50 -93.5t14 -105q0 -120 -36 -213.5t-98 -155t-152.5 -101t-194 -56.5t-227.5 -17q-92 0 -170 4l-123 -571h-279zM500 762q53 -4 151 -4q203 0 301.5 68t98.5 241q0 195 -265 195q-104 0 -178 -5z" />
<glyph unicode="Q" horiz-adv-x="1480" d="M115 477q0 418 204 711q98 142 246.5 216.5t323.5 74.5q563 0 563 -506q0 -175 -49.5 -368t-145.5 -335q-134 -195 -331 -260q47 -15 141.5 -46.5t149 -48.5t139.5 -37t166 -30l-86 -196q-122 13 -254.5 52t-218 75t-241.5 108t-228 103q-185 37 -282 160t-97 327z M401 487q0 -171 78 -256.5t221 -85.5q115 0 188.5 53.5t135.5 174.5q61 118 99 293.5t38 306.5q0 161 -70.5 244t-230.5 83q-183 0 -299 -190q-72 -119 -116 -293.5t-44 -329.5z" />
<glyph unicode="R" horiz-adv-x="1320" d="M59 0l308 1438q230 16 407 16q256 0 377 -82.5t121 -232.5q0 -181 -98.5 -283.5t-278.5 -144.5q47 -15 81 -38.5t66.5 -68.5t58 -122t44.5 -189q30 -163 65 -285l-272 -16q-18 65 -47 217q-34 179 -70 254t-88 110q-59 39 -164 39q-63 0 -102 -2l-131 -610h-277zM504 795 q33 -2 96 -2q73 0 126 5.5t104.5 23.5t83.5 48t51.5 81t19.5 122q0 87 -58 139t-186 52q-33 0 -135 -4z" />
<glyph unicode="S" horiz-adv-x="1110" d="M-2 61l84 201q198 -90 367 -90q137 0 205.5 55t68.5 158q0 106 -160 201l-129 78q-118 72 -173.5 157t-55.5 195q0 213 151 337t404 124q86 0 188 -17t176 -43l-75 -203q-180 62 -312 62q-248 0 -248 -201q0 -91 123 -170l142 -90q149 -93 208.5 -176.5t59.5 -187.5 q0 -233 -161 -356.5t-445 -123.5q-107 0 -228 25.5t-190 64.5z" />
<glyph unicode="T" horiz-adv-x="1183" d="M164 1247l74 199h1103l-41 -199h-421l-269 -1247h-280l268 1247h-434z" />
<glyph unicode="U" horiz-adv-x="1474" d="M135 348q0 105 33 254l182 844h279l-183 -844q-28 -129 -28 -227q0 -99 70 -157t202 -58q167 0 271 90q46 42 75.5 115t59.5 215l184 866h242l-183 -862q-34 -160 -67.5 -254t-85.5 -158q-78 -100 -222.5 -151.5t-336.5 -51.5q-145 0 -254 40.5t-173.5 127t-64.5 211.5z " />
<glyph unicode="V" horiz-adv-x="1376" d="M213 1438l287 16q64 -529 89 -765.5t34 -409.5q98 192 233 433t428 742l262 -16l-850 -1438h-288z" />
<glyph unicode="W" horiz-adv-x="2013" d="M236 1438l280 16q0 -76 1 -202t1 -177q0 -434 -12 -778q173 388 559 1149h289q47 -763 47 -1149q194 489 493 1157l256 -16l-665 -1438h-289q-42 597 -66 1126q-175 -379 -567 -1126h-289z" />
<glyph unicode="X" horiz-adv-x="1411" d="M-86 10l676 760l-316 668l306 16q142 -309 229 -510q157 198 432 510l283 -16l-613 -688l355 -742l-308 -14q-170 351 -260 563q-122 -149 -493 -565z" />
<glyph unicode="Y" horiz-adv-x="1343" d="M215 1438l301 18q166 -463 219 -653q162 224 506 653l281 -18l-707 -867l-121 -571h-278l121 571z" />
<glyph unicode="Z" horiz-adv-x="1259" d="M-57 0l34 182q312 342 525 574t328.5 357t123.5 134h-714l71 199h1047l-39 -180q-811 -892 -981 -1067h811l-39 -199h-1167z" />
<glyph unicode="[" horiz-adv-x="667" d="M-39 -365l404 1878h479l-27 -124h-244l-352 -1629h244l-25 -125h-479z" />
<glyph unicode="\" horiz-adv-x="874" d="M168 1466l141 41l479 -1593l-143 -41z" />
<glyph unicode="]" horiz-adv-x="667" d="M-176 -365l24 127h244l354 1627h-245l26 124h480l-404 -1878h-479z" />
<glyph unicode="^" horiz-adv-x="1497" d="M240 604l598 842h211l235 -842h-197l-174 635l-442 -635h-231z" />
<glyph unicode="_" horiz-adv-x="1073" d="M-127 -276l25 120h1071l-25 -120h-1071z" />
<glyph unicode="`" horiz-adv-x="430" d="M-57 1516l198 81l189 -372l-111 -49z" />
<glyph unicode="a" horiz-adv-x="1181" d="M51 264q0 78 17 162.5t49.5 172.5t87 166.5t124 140t166 98t207.5 36.5q125 0 207 -30l33 61l221 -16q-36 -111 -80 -305l-65 -291q-47 -211 -47 -348q0 -70 2 -101l-242 -22q-10 55 -10 133q0 74 8 110q-95 -117 -205.5 -184t-226.5 -67q-124 0 -185 67.5t-61 216.5z M322 313q0 -145 110 -145q73 0 156 64t125 137q44 73 71 180l39 174q15 73 15 106q0 36 -31 50q-46 24 -117 24q-97 0 -158 -51q-94 -77 -152 -238.5t-58 -300.5z" />
<glyph unicode="b" horiz-adv-x="1179" d="M51 70l322 1458h260l-158 -692q106 103 220 162t200 59q117 0 171 -66t54 -221q0 -81 -15.5 -167t-46.5 -176t-83.5 -169t-121.5 -142t-166.5 -99.5t-211.5 -36.5q-119 0 -236.5 24.5t-187.5 65.5zM342 184q0 -27 33 -39q62 -20 139 -20t143 56.5t107.5 145t64.5 190.5 t23 198q0 143 -107 143q-50 0 -118.5 -28.5t-120.5 -79.5q-31 -28 -47.5 -68.5t-36.5 -120.5l-74 -323q-6 -21 -6 -54z" />
<glyph unicode="c" horiz-adv-x="946" d="M63 350q0 194 77.5 355t226 259.5t340.5 98.5q150 0 268 -43l-64 -172q-116 53 -245 53q-165 0 -251.5 -136.5t-86.5 -373.5q0 -121 57 -176t156 -55q59 0 134 20t144 56l55 -101q-97 -70 -210 -116t-215 -46q-195 0 -290.5 103t-95.5 274z" />
<glyph unicode="d" horiz-adv-x="1200" d="M51 258q0 78 17.5 163.5t51.5 174t89.5 167.5t125.5 141.5t166.5 99t205.5 36.5q108 0 196 -18l111 506h260l-242 -1069q-49 -218 -49 -357q0 -46 4 -92l-242 -22q-12 54 -12 121q0 16 8 124q-93 -116 -209 -184.5t-229 -68.5q-126 0 -189 65t-63 213zM322 313 q0 -145 112 -145q71 0 158.5 62.5t128.5 131.5q51 81 76 183l41 174q14 69 14 112q0 70 -170 70q-44 0 -91.5 -16t-78.5 -45q-85 -82 -137.5 -238t-52.5 -289z" />
<glyph unicode="e" horiz-adv-x="1058" d="M63 358q0 135 42 260t119 224.5t199 159t271 59.5q157 0 248.5 -83t91.5 -235q0 -118 -18 -186l-676 -33q-12 -66 -12 -131q0 -117 61 -174t170 -57q174 0 344 92l53 -98q-243 -181 -467 -181q-114 0 -198 28.5t-133 81.5t-72 120.5t-23 152.5zM358 639l435 43q8 40 8 84 q0 149 -156 149q-42 0 -82 -14t-79.5 -44.5t-72 -86t-53.5 -131.5z" />
<glyph unicode="f" horiz-adv-x="716" d="M86 0l190 872h-172l33 138l174 30l27 107q53 212 139 291q126 116 332 116q104 0 205 -26l-49 -172q-99 26 -166 26q-78 0 -117 -34q-28 -22 -48.5 -75.5t-43.5 -154.5l-21 -84h250l-33 -162h-251l-189 -872h-260z" />
<glyph unicode="g" horiz-adv-x="1200" d="M-55 -395l73 174q156 -78 324 -78q159 0 233 96q70 84 115 258l49 181q-95 -118 -209.5 -187t-232.5 -69q-124 0 -184 67t-60 217q0 94 22.5 196.5t74 206.5t125 186.5t184.5 134.5t243 52q102 0 220 -30l32 61l220 -16q-39 -134 -78 -305l-154 -684q-60 -271 -184 -385 q-76 -67 -185 -104.5t-233 -37.5q-120 0 -224.5 19.5t-170.5 46.5zM326 317q0 -145 110 -145q74 0 162.5 65t128.5 136q44 73 70 176l41 174q14 69 14 108q0 34 -31 48q-19 9 -58 16.5t-69 7.5q-96 0 -157 -51q-94 -77 -152.5 -237t-58.5 -298z" />
<glyph unicode="h" horiz-adv-x="1200" d="M35 0l336 1528h260l-154 -686q100 97 221.5 157t214.5 60q201 0 201 -191q0 -103 -33 -250l-135 -618h-264l127 567q31 148 31 195q0 50 -23 74t-80 24q-54 0 -128.5 -43.5t-121.5 -91.5q-26 -27 -40 -64t-31 -108l-121 -553h-260z" />
<glyph unicode="i" horiz-adv-x="579" d="M37 0l227 1034h262l-227 -1034h-262zM315 1333q0 87 47.5 129.5t122.5 42.5q59 0 91 -32.5t32 -86.5q0 -78 -42 -122.5t-124 -44.5q-61 0 -94 30.5t-33 83.5z" />
<glyph unicode="j" horiz-adv-x="581" d="M-334 -426l60 160q70 -17 116 -17q26 0 47.5 4.5t38.5 16t29.5 21.5t23.5 32t17.5 35.5t15 43.5t12 45.5t11.5 51.5l229 1067h262l-221 -1016q-29 -132 -56.5 -206t-68.5 -123q-116 -133 -340 -133q-102 0 -176 18zM315 1333q0 87 48 129.5t124 42.5q57 0 89 -32.5 t32 -86.5q0 -78 -42 -122.5t-122 -44.5q-61 0 -95 30.5t-34 83.5z" />
<glyph unicode="k" horiz-adv-x="1120" d="M35 0l336 1528h260l-203 -920q34 14 68 43l454 410l236 -47q-307 -272 -504 -424q199 -326 338 -563l-272 -47l-285 518q-19 35 -47 53l-121 -551h-260z" />
<glyph unicode="l" horiz-adv-x="569" d="M35 0l336 1528h260l-336 -1528h-260z" />
<glyph unicode="m" horiz-adv-x="1822" d="M41 0l113 504q69 304 69 520l238 20q8 -62 8 -114q0 -70 -4 -107q104 104 226.5 170t213.5 66q102 0 146.5 -57t44.5 -175q102 102 225.5 165t216.5 63q199 0 199 -191q0 -87 -33 -239l-137 -625h-262l127 578q28 126 28 182q0 49 -20 74.5t-78 25.5q-50 0 -120 -43 t-114 -92q-27 -28 -42 -66t-29 -106l-121 -553h-262l127 580q26 117 26 184q0 48 -20.5 72t-75.5 24q-51 0 -119.5 -42.5t-115.5 -92.5q-47 -52 -72 -172l-121 -553h-262z" />
<glyph unicode="n" horiz-adv-x="1208" d="M41 0l113 504q69 304 69 520l238 20q8 -62 8 -114q0 -70 -4 -107q103 103 231.5 169.5t225.5 66.5q200 0 200 -191q0 -108 -32 -250l-136 -618h-264l127 567q31 148 31 195q0 50 -23 74t-80 24q-54 0 -128 -43t-121 -92q-27 -28 -42.5 -66.5t-29.5 -105.5l-121 -553h-262 z" />
<glyph unicode="o" horiz-adv-x="1136" d="M68 379q0 111 36 234t105 221q76 109 193.5 168t256.5 59q195 0 307.5 -91t112.5 -288q0 -108 -35.5 -244.5t-97.5 -230.5q-73 -111 -186.5 -170.5t-259.5 -59.5q-432 0 -432 402zM334 342q0 -114 45.5 -164.5t140.5 -50.5q139 0 205 143q37 81 64.5 221t27.5 224 q0 194 -178 194q-129 0 -199 -137q-43 -83 -74.5 -211t-31.5 -219z" />
<glyph unicode="p" horiz-adv-x="1187" d="M-57 -432l225 1010q55 253 55 446l238 20q8 -74 8 -118q0 -69 -8 -123q102 117 219 185.5t223 68.5q122 0 178 -65.5t56 -217.5q0 -94 -22.5 -198t-74 -210t-124 -190.5t-182.5 -138t-240 -53.5q-109 0 -193 24l-100 -440h-258zM348 199q0 -35 31 -49q56 -27 131 -27 q43 0 88 16t74 47q84 84 137 241.5t53 291.5q0 145 -110 145q-69 0 -147.5 -59.5t-125.5 -130.5q-53 -76 -76 -180l-41 -185q-14 -69 -14 -110z" />
<glyph unicode="q" horiz-adv-x="1183" d="M51 264q0 78 17 162.5t49.5 172.5t87 166.5t124 140t166 98t207.5 36.5q53 0 117 -8.5t101 -21.5l32 61l222 -16q-36 -111 -80 -305l-265 -1182h-258l152 651q-93 -113 -203 -176t-223 -63q-124 0 -185 67.5t-61 216.5zM324 313q0 -145 110 -145q74 0 162 63t129 134 q46 80 70 178l43 180q14 69 14 106q0 36 -31 50q-46 24 -127 24q-98 0 -157 -51q-94 -79 -153.5 -240t-59.5 -299z" />
<glyph unicode="r" horiz-adv-x="800" d="M41 0l113 510q59 272 59 514l229 20q15 -70 15 -176q0 -52 -4 -84q86 130 181.5 195t184.5 65q41 0 78 -6l-66 -225q-41 8 -86 8q-143 0 -251 -123q-51 -56 -78 -182l-113 -516h-262z" />
<glyph unicode="s" horiz-adv-x="884" d="M-12 66l75 167q175 -90 326 -90q78 0 120 31.5t42 89.5q0 39 -23 66t-82 57l-116 57q-201 98 -201 273q0 69 24 128t73.5 107.5t135 76.5t199.5 28q67 0 158 -18.5t141 -41.5l-63 -170q-158 70 -277 70q-160 0 -160 -123q0 -35 29 -61.5t96 -61.5l105 -53 q201 -104 201 -268q0 -170 -119.5 -262.5t-325.5 -92.5q-81 0 -190 26.5t-168 64.5z" />
<glyph unicode="t" horiz-adv-x="718" d="M98 872l31 138l174 26l80 283h240l-62 -285h240l-33 -162h-242l-120 -532q-11 -57 -11 -82q0 -56 24 -80t79 -24q59 0 127 14l-7 -148q-132 -40 -245 -40q-105 0 -172.5 59t-67.5 168q0 61 21 160l110 505h-166z" />
<glyph unicode="u" horiz-adv-x="1208" d="M86 180q0 87 29 223l137 631h262l-127 -577q-22 -102 -22 -185q0 -100 110 -100q53 0 119.5 43.5t114.5 95.5q27 28 42 65.5t29 104.5l123 553h262l-112 -504q-67 -305 -70 -520l-240 -20q-6 56 -6 135q0 64 2 84q-102 -108 -213 -171t-217 -63q-99 0 -161 52t-62 153z " />
<glyph unicode="v" horiz-adv-x="1083" d="M119 1024l268 23q79 -576 98 -760q111 214 435 760l251 -25l-626 -1022h-256z" />
<glyph unicode="w" horiz-adv-x="1609" d="M137 1022l264 22q4 -132 9 -278t7.5 -216.5t4.5 -143.5t2 -127q24 58 57 128.5t65 135.5t104 210.5t138 280.5h246q47 -635 51 -755q73 186 347 765l247 -18l-508 -1026h-258q-56 626 -61 760q-75 -167 -377 -760h-264z" />
<glyph unicode="x" horiz-adv-x="1140" d="M-90 14l498 529l-250 479l295 25q35 -75 71.5 -152.5t54 -115t29.5 -64.5q65 78 305 334l275 -29l-469 -485l268 -523l-297 -22q-78 155 -176 368q-92 -112 -330 -372z" />
<glyph unicode="y" horiz-adv-x="1085" d="M-147 -432l55 182q77 -10 98 -10q84 0 162 59q72 56 149 201h-47l-151 1024l276 20q70 -610 84 -788q32 64 73.5 138.5t78 138t127.5 220.5t168 291l248 -20l-582 -977q-99 -167 -168 -262t-129 -139q-115 -90 -289 -90q-94 0 -153 12z" />
<glyph unicode="z" horiz-adv-x="991" d="M-72 0l37 158q526 551 666 694h-506l63 182h813l-32 -160q-516 -538 -670 -692h575l-38 -182h-908z" />
<glyph unicode="{" horiz-adv-x="733" d="M80 543l24 125q121 19 173 76t85 212l54 250q18 86 53 146.5t78.5 95t109.5 54t127.5 25t151.5 5.5l-25 -121q-55 0 -92.5 -7t-74 -27.5t-60.5 -62t-37 -106.5l-53 -254q-15 -71 -33 -124t-43 -89.5t-48.5 -60t-62 -40.5t-69.5 -25.5t-84 -20.5q199 -46 199 -248 q0 -55 -25 -162q-55 -235 -55 -286q0 -156 180 -156l-25 -123q-69 0 -123 6t-105.5 22.5t-85.5 44t-54.5 73t-20.5 106.5q0 24 6.5 65.5t14 76t23.5 104t24 106.5q22 113 22 156q0 80 -36 117.5t-113 46.5z" />
<glyph unicode="|" horiz-adv-x="550" d="M-25 -397l418 1943h213l-418 -1943h-213z" />
<glyph unicode="}" horiz-adv-x="733" d="M-160 -381l25 121q55 0 92.5 7t74 27.5t60.5 62t37 106.5l53 254q13 61 29 109t32.5 82t41 60t46 42t56.5 29.5t62 20.5t73 17q-92 21 -145 78t-53 166q0 61 22 166q55 242 55 286q0 156 -180 156l27 123q68 0 122 -6t105.5 -22.5t86 -44t55 -73t20.5 -106.5 q0 -24 -6.5 -64.5t-14.5 -76.5l-23 -103.5t-24 -107.5q-22 -100 -22 -156q0 -80 36 -117.5t113 -46.5l-24 -125q-122 -19 -174.5 -76t-85.5 -212l-52 -250q-13 -62 -34.5 -110.5t-48.5 -82.5t-64.5 -58.5t-75.5 -38.5t-89.5 -22.5t-98.5 -11t-109 -2.5z" />
<glyph unicode="~" horiz-adv-x="1497" d="M158 567q109 129 204.5 182.5t202.5 53.5q42 0 92.5 -19.5t141.5 -70.5q105 -60 182 -60q65 0 118.5 34t123.5 122l133 -119q-94 -120 -186.5 -176.5t-208.5 -56.5q-53 0 -105 16t-127 59q-133 74 -197 74q-113 0 -241 -153z" />
<glyph unicode="&#xa1;" horiz-adv-x="598" d="M-70 -360q12 75 260 987h201q-140 -879 -162 -987h-299zM195 918q0 81 45 131.5t129 50.5q58 0 92.5 -36.5t34.5 -90.5q0 -96 -51 -141.5t-126 -45.5q-55 0 -89.5 36.5t-34.5 95.5z" />
<glyph unicode="&#xa2;" horiz-adv-x="1050" d="M137 375q0 180 66.5 332.5t196 254t300.5 121.5l43 199h115l-43 -195q133 -6 236 -36l-66 -181q-98 46 -205 52l-155 -738q134 4 270 76l53 -102q-189 -136 -362 -158l-41 -190h-113l39 188q-168 13 -251 115t-83 262zM403 414q0 -166 111 -213l152 714 q-129 -31 -196 -166t-67 -335z" />
<glyph unicode="&#xa3;" horiz-adv-x="1185" d="M16 0l31 154q342 155 342 348q0 26 -8 76h-227l32 149h170q-22 136 -22 227q0 112 44 201.5t120 146t174.5 86t212.5 29.5q102 0 203 -13t159 -36l-67 -180q-183 51 -326 51q-130 0 -191 -76.5t-61 -230.5q0 -62 21 -205h366l-33 -149h-327q-3 -44 -13 -95 q-16 -92 -80.5 -161t-207.5 -134h749l-59 -188h-1002z" />
<glyph unicode="&#xa4;" horiz-adv-x="1138" d="M66 340l151 135q-61 95 -61 217q0 172 102 291l-127 150l125 106l125 -147q104 61 231 61q147 0 260 -90l154 133l104 -123l-147 -131q57 -95 57 -227q0 -76 -26 -151.5t-76 -133.5l127 -149l-123 -109l-125 150q-97 -58 -225 -58q-161 0 -270 84l-150 -131zM336 696 q0 -115 68 -191.5t180 -76.5q116 0 196 80t80 205q0 121 -69 197.5t-185 76.5q-121 0 -195.5 -86.5t-74.5 -204.5z" />
<glyph unicode="&#xa5;" horiz-adv-x="1316" d="M137 387l27 129h348l4 25l-49 139h-266l24 127h195l-207 571l301 13q129 -374 195 -631q183 263 473 631l278 -13l-467 -571h193l-27 -127h-262l-115 -139l-4 -25h346l-26 -129h-346l-82 -387h-267l82 387h-348z" />
<glyph unicode="&#xa6;" horiz-adv-x="550" d="M-20 -276l153 720h213l-153 -720h-213zM195 727l155 721h213l-155 -721h-213z" />
<glyph unicode="&#xa7;" horiz-adv-x="1007" d="M-100 -168l80 195q104 -47 207.5 -73t172.5 -26q101 0 143 29t42 100q0 39 -29.5 73t-103.5 87l-144 105q-101 72 -145.5 138t-44.5 150q0 107 79.5 186t213.5 107q-109 98 -109 236q0 66 24.5 123.5t76 106t143 76.5t213.5 28q91 0 191 -20t157 -46l-80 -186 q-92 40 -166 61t-153 21q-76 0 -117 -28t-41 -81q0 -34 28 -71.5t103 -96.5l137 -108q101 -81 142 -146.5t41 -132.5q0 -111 -73.5 -188.5t-205.5 -118.5q121 -105 121 -232q0 -91 -43 -162.5t-114.5 -113.5t-157.5 -63t-179 -21q-96 0 -211 27t-198 65zM307 680 q0 -62 62 -115q6 -5 25 -21.5t31 -26t30 -24.5t34.5 -27t32.5 -22q40 -24 68 -24q44 0 93.5 40.5t49.5 108.5q0 44 -39 88q-51 61 -174 142q-33 20 -57 20q-52 0 -104 -36.5t-52 -102.5z" />
<glyph unicode="&#xa8;" horiz-adv-x="430" d="M-193 1325q0 76 40.5 117t107.5 41q53 0 79.5 -28t26.5 -73q0 -69 -36 -113t-109 -44q-109 0 -109 100zM205 1325q0 76 40.5 117t108.5 41q53 0 79 -28t26 -73q0 -69 -35.5 -113t-110.5 -44q-54 0 -81 26.5t-27 73.5z" />
<glyph unicode="&#xa9;" horiz-adv-x="1738" d="M143 721q0 157 58 297t158 240t240.5 158.5t299.5 58.5q161 0 302.5 -58t242.5 -158t159 -240t58 -298q0 -210 -98.5 -382t-272.5 -270t-389 -98q-160 0 -301 58t-241 157.5t-158 238.5t-58 296zM240 721q0 -186 84.5 -337t236.5 -238t340 -87t340 87t237 238.5t85 336.5 q0 187 -85.5 340t-238 240.5t-340.5 87.5q-186 0 -337.5 -88t-236.5 -241t-85 -339zM453 618q0 145 45 259.5t122 184t174 105t207 35.5q124 0 267 -47l-45 -154q-136 46 -254 46q-150 0 -227.5 -102t-77.5 -292q0 -117 64.5 -179t174.5 -62q105 0 242 37l26 -134 q-65 -25 -156.5 -46t-172.5 -21q-182 0 -285.5 98t-103.5 272z" />
<glyph unicode="&#xaa;" horiz-adv-x="729" d="M70 743q0 63 14 129t48 135.5t83.5 123t127 88t171.5 34.5q77 0 135 -20l23 41l162 -12q-24 -69 -56 -201l-43 -189q-33 -148 -33 -229q0 -10 1.5 -34t1.5 -34l-175 -14q-8 40 -8 88q0 53 6 80q-141 -172 -290 -172q-168 0 -168 186zM270 784q0 -92 66 -92q50 0 102 41.5 t82 91.5q33 54 49 113l23 94q10 41 10 72q0 25 -29.5 36t-66.5 11q-64 0 -100 -31q-63 -52 -99.5 -150.5t-36.5 -185.5z" />
<glyph unicode="&#xab;" horiz-adv-x="1034" d="M92 469l25 125l481 371l57 -74l-374 -361l221 -368l-80 -62zM483 469l25 125l481 371l58 -74l-375 -361l219 -368l-80 -62z" />
<glyph unicode="&#xac;" horiz-adv-x="1497" d="M164 535l37 190h1112l-135 -651h-197l98 461h-915z" />
<glyph unicode="&#xad;" horiz-adv-x="741" d="M72 516l41 199h575l-41 -199h-575z" />
<glyph unicode="&#xae;" horiz-adv-x="1738" d="M143 721q0 157 58 297t158 240t240.5 158.5t299.5 58.5q161 0 302.5 -58t242.5 -158t159 -240t58 -298q0 -210 -98.5 -382t-272.5 -270t-389 -98q-160 0 -301 58t-241 157.5t-158 238.5t-58 296zM240 721q0 -186 84.5 -337t236.5 -238t340 -87t340 87t237 238.5t85 336.5 q0 187 -85.5 340t-238 240.5t-340.5 87.5q-186 0 -337.5 -88t-236.5 -241t-85 -339zM502 285l192 891q175 10 279 10q159 0 237 -53.5t78 -147.5q0 -212 -244 -260q31 -11 53.5 -25t47 -41.5t42.5 -75.5t30 -116q14 -75 43 -176l-197 -12q-10 31 -31 135 q-22 114 -40.5 156.5t-49.5 64.5q-31 24 -102 24q-37 0 -62 -2l-80 -372h-196zM805 782q20 -2 55 -2q50 0 86.5 6.5t70.5 23.5t52 52.5t18 87.5q0 113 -149 113q-6 0 -72 -4z" />
<glyph unicode="&#xaf;" horiz-adv-x="430" d="M-176 1239l33 158h587l-34 -158h-586z" />
<glyph unicode="&#xb0;" horiz-adv-x="655" d="M172 1180q0 144 87 226.5t220 82.5q126 0 199.5 -71.5t73.5 -200.5q0 -137 -84 -219.5t-217 -82.5q-120 0 -199.5 71.5t-79.5 193.5zM309 1190q0 -75 40 -121.5t108 -46.5q71 0 115 49.5t44 134.5q0 81 -35.5 127.5t-105.5 46.5q-73 0 -119.5 -48.5t-46.5 -141.5z" />
<glyph unicode="&#xb1;" horiz-adv-x="1497" d="M88 0l37 188h1112l-37 -188h-1112zM229 752l37 188h459l94 442h199l-96 -442h456l-37 -188h-458l-95 -447h-196l96 447h-459z" />
<glyph unicode="&#xb2;" horiz-adv-x="802" d="M143 922l23 112q116 78 172.5 117.5t127.5 93.5t118 98q100 97 100 195q0 52 -34.5 88.5t-100.5 36.5q-101 0 -201 -33l-24 107q61 24 141 41.5t139 17.5q133 0 200.5 -60.5t67.5 -158.5q0 -173 -153 -295q-129 -107 -348 -225q111 4 452 4l-49 -139h-631z" />
<glyph unicode="&#xb3;" horiz-adv-x="802" d="M174 944l45 115q110 -37 230 -37q98 0 146 42.5t48 113.5q0 60 -49.5 92.5t-173.5 32.5l24 114q79 0 132.5 12t81 34.5t38.5 48.5t11 61q0 49 -35.5 73.5t-96.5 24.5q-78 0 -200 -29l-21 105q136 49 285 49q129 0 191.5 -52.5t62.5 -141.5q0 -91 -57 -152.5t-170 -85.5 q78 -11 127 -59t49 -117q0 -97 -57 -164t-146.5 -97t-202.5 -30q-134 0 -262 47z" />
<glyph unicode="&#xb4;" horiz-adv-x="430" d="M-102 1237l307 346l192 -92l-393 -315z" />
<glyph unicode="&#xb5;" horiz-adv-x="1198" d="M-59 -432l325 1466h262l-127 -579q-24 -111 -24 -183q0 -102 110 -102q54 0 122 43.5t114 95.5q26 29 42 67t30 103l120 555h263l-113 -506q-65 -296 -68 -520l-239 -20q-8 74 -8 135q0 44 4 84q-65 -99 -153.5 -159t-178.5 -60q-79 0 -119 43l-104 -463h-258z" />
<glyph unicode="&#xb6;" horiz-adv-x="1153" d="M166 868q0 285 184.5 431.5t519.5 146.5h330l-377 -1741h-131l348 1604h-186l-350 -1604h-129l172 793q-189 13 -285 115t-96 255z" />
<glyph unicode="&#xb7;" horiz-adv-x="497" d="M102 541q0 94 50 140t124 46q56 0 91.5 -37.5t35.5 -95.5q0 -81 -45 -130.5t-129 -49.5q-60 0 -93.5 35.5t-33.5 91.5z" />
<glyph unicode="&#xb8;" horiz-adv-x="430" d="M-76 -475l39 102q52 -8 86 -8q64 0 90.5 21.5t26.5 62.5q0 32 -21.5 52t-58.5 20q-34 0 -84 -6l125 251h96l-73 -141q89 0 139.5 -42t50.5 -113q0 -216 -291 -216q-68 0 -125 17z" />
<glyph unicode="&#xb9;" horiz-adv-x="802" d="M371 1657q215 92 264 115h151l-180 -850h-182l147 684q-114 -37 -178 -54z" />
<glyph unicode="&#xba;" horiz-adv-x="747" d="M92 815q0 75 25 157t73 148q53 73 136 111.5t180 38.5q139 0 216 -62t77 -182q0 -73 -24 -164.5t-68 -154.5q-49 -72 -135 -113t-185 -41q-142 0 -218.5 67t-76.5 195zM276 784q0 -71 31.5 -103t95.5 -32q96 0 144 99q24 52 44.5 149.5t20.5 149.5q0 124 -120 124 q-41 0 -78 -23.5t-62 -66.5q-29 -50 -52.5 -143.5t-23.5 -153.5z" />
<glyph unicode="&#xbb;" horiz-adv-x="1034" d="M-16 176l376 359l-221 368l80 62l330 -369l-25 -123l-481 -371zM375 176l377 359l-222 368l80 62l330 -369l-25 -123l-483 -371z" />
<glyph unicode="&#xbc;" horiz-adv-x="1800" d="M252 1270q236 101 264 114h152l-181 -849h-182l148 684q-110 -36 -179 -54zM324 23l968 1392l101 -61l-965 -1391zM883 197l22 102l504 551h180l-112 -535h139l-39 -118h-127l-41 -197h-174l41 197h-393zM1061 315h239q55 252 84 367q-99 -122 -323 -367z" />
<glyph unicode="&#xbd;" horiz-adv-x="1800" d="M215 1270q236 101 264 114h152l-180 -849h-183l148 684q-114 -37 -178 -54zM322 23l968 1392l101 -61l-965 -1391zM948 0l23 113q116 78 172.5 117.5t127.5 93.5t118 98q100 97 100 194q0 52 -34.5 88.5t-100.5 36.5q-104 0 -201 -32l-25 106q61 24 141.5 41.5 t139.5 17.5q133 0 200.5 -60.5t67.5 -158.5q0 -173 -153 -295q-129 -107 -348 -225q111 4 452 4l-49 -139h-631z" />
<glyph unicode="&#xbe;" horiz-adv-x="1800" d="M72 557l45 115q110 -37 229 -37q98 0 146.5 42.5t48.5 113.5q0 59 -50 91.5t-174 32.5l25 115q79 0 132 12t80.5 34.5t38.5 48.5t11 61q0 49 -35 73.5t-96 24.5q-79 0 -201 -29l-20 105q136 49 285 49q129 0 191.5 -52.5t62.5 -142.5q0 -91 -57 -152t-171 -85 q78 -11 127 -59t49 -117q0 -97 -56.5 -164t-146 -97t-202.5 -30q-134 0 -262 47zM416 23l968 1392l101 -61l-965 -1391zM942 197l23 102l503 551h181l-113 -535h139l-39 -118h-127l-41 -197h-174l41 197h-393zM1120 315h240q55 252 84 367q-91 -113 -324 -367z" />
<glyph unicode="&#xbf;" horiz-adv-x="917" d="M-57 -88q0 135 73 240.5t260 232.5q87 58 126.5 113t58.5 129h196q-11 -56 -21 -91t-30.5 -76t-54 -76t-84.5 -71q-126 -87 -182 -167.5t-56 -170.5q0 -73 49.5 -114t129.5 -41q128 0 280 39l17 -166q-96 -29 -206.5 -46.5t-179.5 -17.5q-180 0 -278 73.5t-98 209.5z M457 920q0 81 45 130.5t129 49.5q60 0 93.5 -35.5t33.5 -91.5q0 -94 -50 -139.5t-124 -45.5q-56 0 -91.5 37t-35.5 95z" />
<glyph unicode="&#xc0;" horiz-adv-x="1388" d="M-82 8l836 1438h317l193 -1438l-285 -16l-47 399h-520l-232 -399zM508 575h405q-12 104 -27.5 233t-20.5 174t-10.5 98.5t-8.5 97.5q-48 -95 -338 -603zM616 1819l168 120l293 -321l-96 -74z" />
<glyph unicode="&#xc1;" horiz-adv-x="1388" d="M-82 8l836 1438h317l193 -1438l-285 -16l-47 399h-520l-232 -399zM508 575h405q-12 104 -27.5 233t-20.5 174t-10.5 98.5t-8.5 97.5q-48 -95 -338 -603zM745 1622l379 291l150 -127l-451 -240z" />
<glyph unicode="&#xc2;" horiz-adv-x="1388" d="M-82 8l836 1438h317l193 -1438l-285 -16l-47 399h-520l-232 -399zM508 575h405q-12 104 -27.5 233t-20.5 174t-10.5 98.5t-8.5 97.5q-48 -95 -338 -603zM582 1606l321 274h166l184 -285l-90 -61l-215 184l-293 -184z" />
<glyph unicode="&#xc3;" horiz-adv-x="1388" d="M-82 8l836 1438h317l193 -1438l-285 -16l-47 399h-520l-232 -399zM508 575h405q-12 104 -27.5 233t-20.5 174t-10.5 98.5t-8.5 97.5q-48 -95 -338 -603zM541 1612q116 215 258 215q53 0 143 -53q63 -37 107 -37q63 0 139 110l90 -53q-68 -116 -124.5 -167.5t-125.5 -51.5 q-39 0 -69.5 11t-77.5 38q-82 45 -115 45q-65 0 -135 -106z" />
<glyph unicode="&#xc4;" horiz-adv-x="1388" d="M-82 8l836 1438h317l193 -1438l-285 -16l-47 399h-520l-232 -399zM508 575h405q-12 104 -27.5 233t-20.5 174t-10.5 98.5t-8.5 97.5q-48 -95 -338 -603zM594 1671q0 75 40.5 116.5t106.5 41.5q53 0 80 -29t27 -74q0 -68 -36 -111.5t-110 -43.5q-108 0 -108 100z M1012 1671q0 75 40.5 116.5t108.5 41.5q53 0 79 -28.5t26 -74.5q0 -69 -35.5 -112t-110.5 -43q-54 0 -81 26.5t-27 73.5z" />
<glyph unicode="&#xc5;" horiz-adv-x="1388" d="M-82 8l836 1438h317l193 -1438l-285 -16l-47 399h-520l-232 -399zM508 575h405q-12 104 -27.5 233t-20.5 174t-10.5 98.5t-8.5 97.5q-48 -95 -338 -603zM721 1722q0 95 64 156t159 61q87 0 141 -51t54 -135q0 -96 -61.5 -159.5t-157.5 -63.5q-87 0 -143 53t-56 139z M825 1731q0 -47 26.5 -79t76.5 -32q46 0 75 37t29 92q0 43 -27 71.5t-69 28.5q-47 0 -79 -33.5t-32 -84.5z" />
<glyph unicode="&#xc6;" horiz-adv-x="1972" d="M-96 10l1163 1436h958l-69 -195h-539l-88 -407h524l-41 -193h-522l-100 -456h676l-68 -195h-919l86 397h-447l-330 -403zM643 590h363l137 629q-92 -126 -500 -629z" />
<glyph unicode="&#xc7;" horiz-adv-x="1288" d="M119 508q0 399 207 670q110 146 269.5 223.5t356.5 77.5q188 0 391 -56l-63 -198q-193 61 -344 61q-266 0 -399 -211q-64 -104 -99 -243t-35 -271q0 -191 82.5 -295t249.5 -104q175 0 387 94l43 -154q-254 -122 -483 -131l-49 -100q90 -1 142 -45.5t52 -118.5 q0 -227 -295 -227q-73 0 -131 16l41 109q48 -11 88 -11q121 0 121 89q0 34 -22 55.5t-60 21.5q-39 0 -88 -6l105 217q-221 15 -344 151.5t-123 385.5z" />
<glyph unicode="&#xc8;" horiz-adv-x="1157" d="M59 0l310 1446h841l-71 -195h-535l-90 -407h522l-39 -193h-522l-102 -456h678l-70 -195h-922zM467 1819l168 120l293 -321l-97 -74z" />
<glyph unicode="&#xc9;" horiz-adv-x="1157" d="M59 0l310 1446h841l-71 -195h-535l-90 -407h522l-39 -193h-522l-102 -456h678l-70 -195h-922zM631 1622l379 291l149 -127l-450 -240z" />
<glyph unicode="&#xca;" horiz-adv-x="1157" d="M59 0l310 1446h841l-71 -195h-535l-90 -407h522l-39 -193h-522l-102 -456h678l-70 -195h-922zM453 1606l321 274h166l184 -285l-90 -61l-215 184l-293 -184z" />
<glyph unicode="&#xcb;" horiz-adv-x="1157" d="M59 0l310 1446h841l-71 -195h-535l-90 -407h522l-39 -193h-522l-102 -456h678l-70 -195h-922zM496 1671q0 75 40.5 116.5t106.5 41.5q53 0 80 -29t27 -74q0 -68 -36 -111.5t-110 -43.5q-108 0 -108 100zM913 1671q0 75 41 116.5t109 41.5q53 0 78.5 -28.5t25.5 -74.5 q0 -69 -35 -112t-110 -43q-54 0 -81.5 26.5t-27.5 73.5z" />
<glyph unicode="&#xcc;" horiz-adv-x="622" d="M59 0l310 1446h282l-311 -1446h-281zM213 1819l168 120l293 -321l-96 -74z" />
<glyph unicode="&#xcd;" horiz-adv-x="622" d="M59 0l310 1446h282l-311 -1446h-281zM358 1622l379 291l150 -127l-451 -240z" />
<glyph unicode="&#xce;" horiz-adv-x="622" d="M59 0l310 1446h282l-311 -1446h-281zM193 1606l321 274h166l184 -285l-90 -61l-215 184l-293 -184z" />
<glyph unicode="&#xcf;" horiz-adv-x="622" d="M59 0l310 1446h282l-311 -1446h-281zM205 1671q0 75 40.5 116.5t106.5 41.5q53 0 80 -29t27 -74q0 -68 -36 -111.5t-110 -43.5q-108 0 -108 100zM623 1671q0 75 40.5 116.5t108.5 41.5q53 0 79 -28.5t26 -74.5q0 -69 -35.5 -112t-110.5 -43q-54 0 -81 26.5t-27 73.5z" />
<glyph unicode="&#xd0;" horiz-adv-x="1474" d="M37 676l39 178h164l125 580q200 18 413 18q243 0 385 -63q137 -59 208 -180.5t71 -284.5q0 -135 -26.5 -258.5t-82 -236.5t-152 -204.5t-225.5 -148.5q-187 -84 -524 -84q-161 0 -373 16l144 668h-166zM371 186q68 -6 184 -6q222 0 350 92q116 83 184 259.5t68 359.5 q0 225 -110 309q-95 74 -269 74q-88 0 -174 -8l-90 -412h342l-39 -178h-342z" />
<glyph unicode="&#xd1;" horiz-adv-x="1521" d="M59 0l312 1446h329q315 -817 406 -1077q66 353 225 1077h225l-311 -1446h-276q-334 878 -428 1159q-38 -218 -246 -1159h-236zM639 1612q116 215 258 215q53 0 143 -53q63 -37 107 -37q63 0 139 110l90 -53q-68 -116 -124.5 -167.5t-125.5 -51.5q-39 0 -69.5 11t-77.5 38 q-82 45 -115 45q-65 0 -135 -106z" />
<glyph unicode="&#xd2;" horiz-adv-x="1480" d="M115 477q0 418 204 711q98 142 246.5 216.5t323.5 74.5q563 0 563 -506q0 -175 -49.5 -368t-145.5 -335q-202 -299 -579 -299q-271 0 -417 128t-146 378zM401 487q0 -171 78 -256.5t221 -85.5q115 0 188.5 53.5t135.5 174.5q61 118 99 293.5t38 306.5q0 161 -70.5 244 t-230.5 83q-183 0 -299 -190q-72 -119 -116 -293.5t-44 -329.5zM610 1819l168 120l293 -321l-96 -74z" />
<glyph unicode="&#xd3;" horiz-adv-x="1480" d="M115 477q0 418 204 711q98 142 246.5 216.5t323.5 74.5q563 0 563 -506q0 -175 -49.5 -368t-145.5 -335q-202 -299 -579 -299q-271 0 -417 128t-146 378zM401 487q0 -171 78 -256.5t221 -85.5q115 0 188.5 53.5t135.5 174.5q61 118 99 293.5t38 306.5q0 161 -70.5 244 t-230.5 83q-183 0 -299 -190q-72 -119 -116 -293.5t-44 -329.5zM797 1622l379 291l149 -127l-451 -240z" />
<glyph unicode="&#xd4;" horiz-adv-x="1480" d="M115 477q0 418 204 711q98 142 246.5 216.5t323.5 74.5q563 0 563 -506q0 -175 -49.5 -368t-145.5 -335q-202 -299 -579 -299q-271 0 -417 128t-146 378zM401 487q0 -171 78 -256.5t221 -85.5q115 0 188.5 53.5t135.5 174.5q61 118 99 293.5t38 306.5q0 161 -70.5 244 t-230.5 83q-183 0 -299 -190q-72 -119 -116 -293.5t-44 -329.5zM629 1614l315 301h164l178 -318l-100 -57l-195 215l-276 -217z" />
<glyph unicode="&#xd5;" horiz-adv-x="1480" d="M115 477q0 418 204 711q98 142 246.5 216.5t323.5 74.5q563 0 563 -506q0 -175 -49.5 -368t-145.5 -335q-202 -299 -579 -299q-271 0 -417 128t-146 378zM401 487q0 -171 78 -256.5t221 -85.5q115 0 188.5 53.5t135.5 174.5q61 118 99 293.5t38 306.5q0 161 -70.5 244 t-230.5 83q-183 0 -299 -190q-72 -119 -116 -293.5t-44 -329.5zM621 1612q116 215 258 215q53 0 143 -53q63 -37 106 -37q64 0 140 110l90 -53q-68 -116 -124.5 -167.5t-125.5 -51.5q-39 0 -69.5 11t-77.5 38q-82 45 -115 45q-65 0 -135 -106z" />
<glyph unicode="&#xd6;" horiz-adv-x="1480" d="M115 477q0 418 204 711q98 142 246.5 216.5t323.5 74.5q563 0 563 -506q0 -175 -49.5 -368t-145.5 -335q-202 -299 -579 -299q-271 0 -417 128t-146 378zM401 487q0 -171 78 -256.5t221 -85.5q115 0 188.5 53.5t135.5 174.5q61 118 99 293.5t38 306.5q0 161 -70.5 244 t-230.5 83q-183 0 -299 -190q-72 -119 -116 -293.5t-44 -329.5zM643 1671q0 75 41 116.5t107 41.5q53 0 79.5 -28.5t26.5 -74.5q0 -68 -35.5 -111.5t-109.5 -43.5q-109 0 -109 100zM1061 1671q0 75 40.5 116.5t108.5 41.5q53 0 79 -28.5t26 -74.5q0 -69 -35.5 -112 t-110.5 -43q-54 0 -81 26.5t-27 73.5z" />
<glyph unicode="&#xd7;" horiz-adv-x="1497" d="M221 289l397 350l-303 348l148 131l301 -350l401 350l121 -141l-401 -352l301 -346l-148 -132l-301 349l-395 -349z" />
<glyph unicode="&#xd8;" horiz-adv-x="1480" d="M82 -8l129 160q-96 122 -96 325q0 418 204 711q98 142 246.5 216.5t323.5 74.5q207 0 342 -72l117 143l94 -75l-115 -140q125 -128 125 -362q0 -175 -49.5 -368t-145.5 -335q-202 -299 -579 -299q-232 0 -377 97l-121 -148zM401 487q0 -43 7 -94l675 832q-75 75 -223 75 q-183 0 -299 -190q-72 -119 -116 -293.5t-44 -329.5zM457 260q75 -115 243 -115q115 0 188.5 53.5t135.5 174.5q61 118 99 293.5t38 306.5q0 73 -16 135z" />
<glyph unicode="&#xd9;" horiz-adv-x="1474" d="M135 348q0 105 33 254l182 844h279l-183 -844q-28 -129 -28 -227q0 -99 70 -157t202 -58q167 0 271 90q46 42 75.5 115t59.5 215l184 866h242l-183 -862q-34 -160 -67.5 -254t-85.5 -158q-78 -100 -222.5 -151.5t-336.5 -51.5q-145 0 -254 40.5t-173.5 127t-64.5 211.5z M639 1819l168 120l293 -321l-96 -74z" />
<glyph unicode="&#xda;" horiz-adv-x="1474" d="M135 348q0 105 33 254l182 844h279l-183 -844q-28 -129 -28 -227q0 -99 70 -157t202 -58q167 0 271 90q46 42 75.5 115t59.5 215l184 866h242l-183 -862q-34 -160 -67.5 -254t-85.5 -158q-78 -100 -222.5 -151.5t-336.5 -51.5q-145 0 -254 40.5t-173.5 127t-64.5 211.5z M799 1622l379 291l149 -127l-450 -240z" />
<glyph unicode="&#xdb;" horiz-adv-x="1474" d="M135 348q0 105 33 254l182 844h279l-183 -844q-28 -129 -28 -227q0 -99 70 -157t202 -58q167 0 271 90q46 42 75.5 115t59.5 215l184 866h242l-183 -862q-34 -160 -67.5 -254t-85.5 -158q-78 -100 -222.5 -151.5t-336.5 -51.5q-145 0 -254 40.5t-173.5 127t-64.5 211.5z M635 1606l321 274h166l185 -285l-90 -61l-216 184l-292 -184z" />
<glyph unicode="&#xdc;" horiz-adv-x="1474" d="M135 348q0 105 33 254l182 844h279l-183 -844q-28 -129 -28 -227q0 -99 70 -157t202 -58q167 0 271 90q46 42 75.5 115t59.5 215l184 866h242l-183 -862q-34 -160 -67.5 -254t-85.5 -158q-78 -100 -222.5 -151.5t-336.5 -51.5q-145 0 -254 40.5t-173.5 127t-64.5 211.5z M625 1671q0 75 40.5 116.5t106.5 41.5q53 0 80 -29t27 -74q0 -68 -36 -111.5t-110 -43.5q-108 0 -108 100zM1042 1671q0 75 41 116.5t109 41.5q53 0 78.5 -28.5t25.5 -74.5q0 -69 -35 -112t-110 -43q-54 0 -81.5 26.5t-27.5 73.5z" />
<glyph unicode="&#xdd;" horiz-adv-x="1343" d="M215 1438l301 18q166 -463 219 -653q162 224 506 653l281 -18l-707 -867l-121 -571h-278l121 571zM735 1622l379 291l150 -127l-451 -240z" />
<glyph unicode="&#xde;" horiz-adv-x="1286" d="M59 0l312 1446h278l-57 -262q55 4 194 4q108 0 193.5 -20t141 -53t92 -79.5t52 -97t15.5 -107.5q0 -121 -36 -213t-97.5 -151.5t-153 -97t-193.5 -53t-227 -15.5q-92 0 -170 4l-67 -305h-277zM440 496q55 -4 154 -4q80 0 139.5 8t110 28.5t82.5 54t49.5 86t17.5 124.5 q0 88 -64.5 145t-205.5 57q-87 0 -172 -6z" />
<glyph unicode="&#xdf;" horiz-adv-x="1208" d="M39 0l207 967q53 251 147 364q77 97 195.5 156t259.5 59q81 0 144 -18t101 -46t62.5 -65t33.5 -71t9 -68q0 -101 -42.5 -174t-141.5 -154q-76 -64 -103.5 -95t-27.5 -56q0 -48 67 -131l58 -70q114 -133 114 -242q0 -92 -39 -165.5t-104.5 -118t-144.5 -67.5t-164 -23 q-67 0 -146.5 18t-136.5 45l84 172q43 -24 105 -43.5t102 -19.5q93 0 137.5 35.5t44.5 115.5q0 56 -72 150l-65 86q-8 11 -27 35.5t-25.5 33t-19.5 27t-17.5 28t-11 24t-8.5 27t-2 25.5q0 50 30.5 94.5t107.5 116.5q106 100 147 167.5t41 142.5q0 53 -34.5 93t-100.5 40 q-41 0 -71 -7.5t-63 -31.5t-58.5 -66.5t-51 -115t-47.5 -175.5l-211 -999h-262z" />
<glyph unicode="&#xe0;" horiz-adv-x="1181" d="M51 264q0 78 17 162.5t49.5 172.5t87 166.5t124 140t166 98t207.5 36.5q125 0 207 -30l33 61l221 -16q-36 -111 -80 -305l-65 -291q-47 -211 -47 -348q0 -70 2 -101l-242 -22q-10 55 -10 133q0 74 8 110q-95 -117 -205.5 -184t-226.5 -67q-124 0 -185 67.5t-61 216.5z M322 313q0 -145 110 -145q73 0 156 64t125 137q44 73 71 180l39 174q15 73 15 106q0 36 -31 50q-46 24 -117 24q-97 0 -158 -51q-94 -77 -152 -238.5t-58 -300.5zM494 1516l198 81l189 -372l-111 -49z" />
<glyph unicode="&#xe1;" horiz-adv-x="1181" d="M51 264q0 78 17 162.5t49.5 172.5t87 166.5t124 140t166 98t207.5 36.5q125 0 207 -30l33 61l221 -16q-36 -111 -80 -305l-65 -291q-47 -211 -47 -348q0 -70 2 -101l-242 -22q-10 55 -10 133q0 74 8 110q-95 -117 -205.5 -184t-226.5 -67q-124 0 -185 67.5t-61 216.5z M322 313q0 -145 110 -145q73 0 156 64t125 137q44 73 71 180l39 174q15 73 15 106q0 36 -31 50q-46 24 -117 24q-97 0 -158 -51q-94 -77 -152 -238.5t-58 -300.5zM668 1237l307 346l192 -92l-393 -315z" />
<glyph unicode="&#xe2;" horiz-adv-x="1181" d="M51 264q0 78 17 162.5t49.5 172.5t87 166.5t124 140t166 98t207.5 36.5q125 0 207 -30l33 61l221 -16q-36 -111 -80 -305l-65 -291q-47 -211 -47 -348q0 -70 2 -101l-242 -22q-10 55 -10 133q0 74 8 110q-95 -117 -205.5 -184t-226.5 -67q-124 0 -185 67.5t-61 216.5z M322 313q0 -145 110 -145q73 0 156 64t125 137q44 73 71 180l39 174q15 73 15 106q0 36 -31 50q-46 24 -117 24q-97 0 -158 -51q-94 -77 -152 -238.5t-58 -300.5zM479 1229l314 311h151l164 -328l-102 -55l-172 219l-269 -221z" />
<glyph unicode="&#xe3;" horiz-adv-x="1181" d="M51 264q0 78 17 162.5t49.5 172.5t87 166.5t124 140t166 98t207.5 36.5q125 0 207 -30l33 61l221 -16q-36 -111 -80 -305l-65 -291q-47 -211 -47 -348q0 -70 2 -101l-242 -22q-10 55 -10 133q0 74 8 110q-95 -117 -205.5 -184t-226.5 -67q-124 0 -185 67.5t-61 216.5z M322 313q0 -145 110 -145q73 0 156 64t125 137q44 73 71 180l39 174q15 73 15 106q0 36 -31 50q-46 24 -117 24q-97 0 -158 -51q-94 -77 -152 -238.5t-58 -300.5zM459 1257q112 220 243 220q28 0 56.5 -12.5t81.5 -45.5q58 -37 98 -37q33 0 60.5 24.5t64.5 78.5l92 -47 q-62 -116 -116 -167.5t-121 -51.5q-38 0 -67.5 11t-72.5 40q-68 45 -100 45q-67 0 -127 -105z" />
<glyph unicode="&#xe4;" horiz-adv-x="1181" d="M51 264q0 78 17 162.5t49.5 172.5t87 166.5t124 140t166 98t207.5 36.5q125 0 207 -30l33 61l221 -16q-36 -111 -80 -305l-65 -291q-47 -211 -47 -348q0 -70 2 -101l-242 -22q-10 55 -10 133q0 74 8 110q-95 -117 -205.5 -184t-226.5 -67q-124 0 -185 67.5t-61 216.5z M322 313q0 -145 110 -145q73 0 156 64t125 137q44 73 71 180l39 174q15 73 15 106q0 36 -31 50q-46 24 -117 24q-97 0 -158 -51q-94 -77 -152 -238.5t-58 -300.5zM516 1325q0 76 40.5 117t107.5 41q53 0 79.5 -28t26.5 -73q0 -69 -36 -113t-109 -44q-109 0 -109 100z M913 1325q0 76 41 117t109 41q53 0 78.5 -27.5t25.5 -73.5q0 -69 -35 -113t-110 -44q-54 0 -81.5 26.5t-27.5 73.5z" />
<glyph unicode="&#xe5;" horiz-adv-x="1181" d="M51 264q0 78 17 162.5t49.5 172.5t87 166.5t124 140t166 98t207.5 36.5q125 0 207 -30l33 61l221 -16q-36 -111 -80 -305l-65 -291q-47 -211 -47 -348q0 -70 2 -101l-242 -22q-10 55 -10 133q0 74 8 110q-95 -117 -205.5 -184t-226.5 -67q-124 0 -185 67.5t-61 216.5z M322 313q0 -145 110 -145q73 0 156 64t125 137q44 73 71 180l39 174q15 73 15 106q0 36 -31 50q-46 24 -117 24q-97 0 -158 -51q-94 -77 -152 -238.5t-58 -300.5zM590 1370q0 100 64.5 164.5t162.5 64.5q93 0 149 -54t56 -142q0 -96 -64.5 -161.5t-164.5 -65.5 q-89 0 -146 54.5t-57 139.5zM696 1378q0 -47 27.5 -77.5t77.5 -30.5q53 0 83.5 36.5t30.5 92.5q0 47 -29 76.5t-75 29.5q-52 0 -83.5 -36t-31.5 -91z" />
<glyph unicode="&#xe6;" horiz-adv-x="1654" d="M25 250q0 55 12 99.5t38 78.5t57.5 59.5t80.5 44t96 31t115.5 21.5t126.5 14t141 10q23 110 23 146q0 69 -43 94.5t-129 25.5q-124 0 -310 -49l-32 152q104 38 223.5 61t214.5 23q92 0 165 -35t101 -106q75 67 170.5 104t194.5 37q360 0 360 -332q0 -79 -24 -199 l-674 -36q-10 -65 -10 -105q0 -102 54.5 -164.5t174.5 -62.5q154 0 342 92l55 -102q-140 -95 -242.5 -137t-234.5 -42q-262 0 -348 154q-212 -150 -410 -150q-127 0 -207.5 75.5t-80.5 197.5zM279 276q0 -57 40.5 -94t100.5 -37q119 0 252 97q-15 47 -15 98q0 62 11 133 q-213 -14 -308 -59q-81 -40 -81 -138zM948 625l443 43q8 54 8 80q0 89 -40.5 129.5t-131.5 40.5q-41 0 -83 -17t-81 -51t-70 -92.5t-45 -132.5z" />
<glyph unicode="&#xe7;" horiz-adv-x="946" d="M63 350q0 194 77.5 355t226 259.5t340.5 98.5q150 0 268 -43l-64 -172q-116 53 -245 53q-165 0 -251.5 -136.5t-86.5 -373.5q0 -121 57 -176t156 -55q59 0 134 20t144 56l55 -101q-195 -139 -374 -158l-49 -98q89 0 139.5 -42t50.5 -113q0 -216 -291 -216q-68 0 -125 17 l39 102q52 -8 86 -8q64 0 90.5 21.5t26.5 62.5q0 32 -21.5 52t-58.5 20q-35 0 -84 -6l103 206q-174 12 -258.5 112.5t-84.5 262.5z" />
<glyph unicode="&#xe8;" horiz-adv-x="1058" d="M63 358q0 135 42 260t119 224.5t199 159t271 59.5q157 0 248.5 -83t91.5 -235q0 -118 -18 -186l-676 -33q-12 -66 -12 -131q0 -117 61 -174t170 -57q174 0 344 92l53 -98q-243 -181 -467 -181q-114 0 -198 28.5t-133 81.5t-72 120.5t-23 152.5zM358 639l435 43q8 40 8 84 q0 149 -156 149q-42 0 -82 -14t-79.5 -44.5t-72 -86t-53.5 -131.5zM416 1516l198 81l189 -372l-111 -49z" />
<glyph unicode="&#xe9;" horiz-adv-x="1058" d="M63 358q0 135 42 260t119 224.5t199 159t271 59.5q157 0 248.5 -83t91.5 -235q0 -118 -18 -186l-676 -33q-12 -66 -12 -131q0 -117 61 -174t170 -57q174 0 344 92l53 -98q-243 -181 -467 -181q-114 0 -198 28.5t-133 81.5t-72 120.5t-23 152.5zM358 639l435 43q8 40 8 84 q0 149 -156 149q-42 0 -82 -14t-79.5 -44.5t-72 -86t-53.5 -131.5zM543 1237l307 346l192 -92l-393 -315z" />
<glyph unicode="&#xea;" horiz-adv-x="1058" d="M63 358q0 135 42 260t119 224.5t199 159t271 59.5q157 0 248.5 -83t91.5 -235q0 -118 -18 -186l-676 -33q-12 -66 -12 -131q0 -117 61 -174t170 -57q174 0 344 92l53 -98q-243 -181 -467 -181q-114 0 -198 28.5t-133 81.5t-72 120.5t-23 152.5zM358 639l435 43q8 40 8 84 q0 149 -156 149q-42 0 -82 -14t-79.5 -44.5t-72 -86t-53.5 -131.5zM399 1229l314 311h151l164 -328l-102 -55l-172 219l-269 -221z" />
<glyph unicode="&#xeb;" horiz-adv-x="1058" d="M63 358q0 135 42 260t119 224.5t199 159t271 59.5q157 0 248.5 -83t91.5 -235q0 -118 -18 -186l-676 -33q-12 -66 -12 -131q0 -117 61 -174t170 -57q174 0 344 92l53 -98q-243 -181 -467 -181q-114 0 -198 28.5t-133 81.5t-72 120.5t-23 152.5zM358 639l435 43q8 40 8 84 q0 149 -156 149q-42 0 -82 -14t-79.5 -44.5t-72 -86t-53.5 -131.5zM403 1325q0 76 40.5 117t107.5 41q53 0 79.5 -28t26.5 -73q0 -69 -36 -113t-109 -44q-109 0 -109 100zM801 1325q0 76 40.5 117t108.5 41q53 0 79 -28t26 -73q0 -69 -35.5 -113t-110.5 -44q-54 0 -81 26.5 t-27 73.5z" />
<glyph unicode="&#xec;" horiz-adv-x="579" d="M37 0l227 1034h262l-227 -1034h-262zM164 1516l198 81l189 -372l-111 -49z" />
<glyph unicode="&#xed;" horiz-adv-x="579" d="M37 0l227 1034h262l-227 -1034h-262zM283 1237l307 346l192 -92l-393 -315z" />
<glyph unicode="&#xee;" horiz-adv-x="579" d="M37 0l227 1034h262l-227 -1034h-262zM96 1229l314 311h151l164 -328l-102 -55l-172 219l-269 -221z" />
<glyph unicode="&#xef;" horiz-adv-x="579" d="M37 0l227 1034h262l-227 -1034h-262zM113 1325q0 76 40 117t107 41q53 0 80 -28t27 -73q0 -68 -36 -112.5t-110 -44.5q-108 0 -108 100zM510 1325q0 76 40.5 117t108.5 41q53 0 79 -28t26 -73q0 -69 -35.5 -113t-110.5 -44q-54 0 -81 26.5t-27 73.5z" />
<glyph unicode="&#xf0;" horiz-adv-x="1144" d="M68 377q0 129 40 251.5t117 215.5q72 90 170.5 134t202.5 44q78 0 148.5 -24t97.5 -72q-10 180 -96 272l-261 -129l-55 121l217 108q-88 60 -198 84l57 158q188 -35 342 -129l221 111l62 -117l-187 -92q144 -174 144 -473q0 -450 -177 -678q-69 -90 -176 -139.5 t-241 -49.5q-201 0 -314.5 99t-113.5 305zM334 350q0 -115 42.5 -169t139.5 -54q116 0 178 100q54 83 86.5 216t32.5 219q0 103 -47 156.5t-139 53.5q-53 0 -102 -32t-85 -95q-47 -85 -76.5 -194.5t-29.5 -200.5z" />
<glyph unicode="&#xf1;" horiz-adv-x="1208" d="M41 0l113 504q69 304 69 520l238 20q8 -62 8 -114q0 -70 -4 -107q103 103 231.5 169.5t225.5 66.5q200 0 200 -191q0 -108 -32 -250l-136 -618h-264l127 567q31 148 31 195q0 50 -23 74t-80 24q-54 0 -128 -43t-121 -92q-27 -28 -42.5 -66.5t-29.5 -105.5l-121 -553h-262 zM420 1253q112 220 244 220q28 0 56 -12.5t81 -45.5q58 -37 98 -37q33 0 60.5 24.5t64.5 78.5l92 -47q-62 -116 -116 -168t-121 -52q-38 0 -67.5 11.5t-72.5 40.5q-68 45 -100 45q-67 0 -127 -105z" />
<glyph unicode="&#xf2;" horiz-adv-x="1136" d="M68 379q0 111 36 234t105 221q76 109 193.5 168t256.5 59q195 0 307.5 -91t112.5 -288q0 -108 -35.5 -244.5t-97.5 -230.5q-73 -111 -186.5 -170.5t-259.5 -59.5q-432 0 -432 402zM334 342q0 -114 45.5 -164.5t140.5 -50.5q139 0 205 143q37 81 64.5 221t27.5 224 q0 194 -178 194q-129 0 -199 -137q-43 -83 -74.5 -211t-31.5 -219zM406 1516l198 81l189 -372l-111 -49z" />
<glyph unicode="&#xf3;" horiz-adv-x="1136" d="M68 379q0 111 36 234t105 221q76 109 193.5 168t256.5 59q195 0 307.5 -91t112.5 -288q0 -108 -35.5 -244.5t-97.5 -230.5q-73 -111 -186.5 -170.5t-259.5 -59.5q-432 0 -432 402zM334 342q0 -114 45.5 -164.5t140.5 -50.5q139 0 205 143q37 81 64.5 221t27.5 224 q0 194 -178 194q-129 0 -199 -137q-43 -83 -74.5 -211t-31.5 -219zM551 1237l307 346l193 -92l-394 -315z" />
<glyph unicode="&#xf4;" horiz-adv-x="1136" d="M68 379q0 111 36 234t105 221q76 109 193.5 168t256.5 59q195 0 307.5 -91t112.5 -288q0 -108 -35.5 -244.5t-97.5 -230.5q-73 -111 -186.5 -170.5t-259.5 -59.5q-432 0 -432 402zM334 342q0 -114 45.5 -164.5t140.5 -50.5q139 0 205 143q37 81 64.5 221t27.5 224 q0 194 -178 194q-129 0 -199 -137q-43 -83 -74.5 -211t-31.5 -219zM391 1229l314 311h151l164 -328l-102 -55l-173 219l-268 -221z" />
<glyph unicode="&#xf5;" horiz-adv-x="1136" d="M68 379q0 111 36 234t105 221q76 109 193.5 168t256.5 59q195 0 307.5 -91t112.5 -288q0 -108 -35.5 -244.5t-97.5 -230.5q-73 -111 -186.5 -170.5t-259.5 -59.5q-432 0 -432 402zM334 342q0 -114 45.5 -164.5t140.5 -50.5q139 0 205 143q37 81 64.5 221t27.5 224 q0 194 -178 194q-129 0 -199 -137q-43 -83 -74.5 -211t-31.5 -219zM403 1257q112 220 244 220q28 0 56 -12.5t81 -45.5q58 -37 99 -37q33 0 60.5 24.5t64.5 78.5l92 -47q-62 -116 -116.5 -167.5t-121.5 -51.5q-38 0 -67 11t-72 40q-68 45 -100 45q-67 0 -127 -105z" />
<glyph unicode="&#xf6;" horiz-adv-x="1136" d="M68 379q0 111 36 234t105 221q76 109 193.5 168t256.5 59q195 0 307.5 -91t112.5 -288q0 -108 -35.5 -244.5t-97.5 -230.5q-73 -111 -186.5 -170.5t-259.5 -59.5q-432 0 -432 402zM334 342q0 -114 45.5 -164.5t140.5 -50.5q139 0 205 143q37 81 64.5 221t27.5 224 q0 194 -178 194q-129 0 -199 -137q-43 -83 -74.5 -211t-31.5 -219zM418 1325q0 76 40 117t107 41q53 0 80 -28t27 -73q0 -68 -36 -112.5t-110 -44.5q-108 0 -108 100zM815 1325q0 76 41 117t109 41q53 0 78.5 -27.5t25.5 -73.5q0 -69 -35 -113t-110 -44q-54 0 -81.5 26.5 t-27.5 73.5z" />
<glyph unicode="&#xf7;" horiz-adv-x="1497" d="M193 537l38 190h1112l-38 -190h-1112zM559 221q0 82 42 121t108 39q51 0 79.5 -30t28.5 -81q0 -72 -37.5 -114.5t-107.5 -42.5q-55 0 -84 29t-29 79zM719 981q0 83 42 122.5t109 39.5q50 0 78.5 -31t28.5 -80q0 -73 -37.5 -115.5t-108.5 -42.5q-55 0 -83.5 28.5 t-28.5 78.5z" />
<glyph unicode="&#xf8;" horiz-adv-x="1136" d="M61 -27l97 121q-90 99 -90 285q0 111 36 234t105 221q76 109 193.5 168t256.5 59q142 0 236 -47l100 125l82 -62l-96 -121q98 -95 98 -274q0 -108 -35.5 -244.5t-97.5 -230.5q-73 -111 -186.5 -170.5t-259.5 -59.5q-159 0 -258 54l-97 -121zM334 313l438 547 q-43 49 -133 49q-129 0 -199 -137q-43 -83 -74.5 -211t-31.5 -219v-29zM369 190q43 -63 151 -63q139 0 205 143q37 81 64.5 221t27.5 224q0 6 -1 17t-1 16z" />
<glyph unicode="&#xf9;" horiz-adv-x="1208" d="M86 180q0 87 29 223l137 631h262l-127 -577q-22 -102 -22 -185q0 -100 110 -100q53 0 119.5 43.5t114.5 95.5q27 28 42 65.5t29 104.5l123 553h262l-112 -504q-67 -305 -70 -520l-240 -20q-6 56 -6 135q0 64 2 84q-102 -108 -213 -171t-217 -63q-99 0 -161 52t-62 153z M469 1516l199 81l188 -372l-111 -49z" />
<glyph unicode="&#xfa;" horiz-adv-x="1208" d="M86 180q0 87 29 223l137 631h262l-127 -577q-22 -102 -22 -185q0 -100 110 -100q53 0 119.5 43.5t114.5 95.5q27 28 42 65.5t29 104.5l123 553h262l-112 -504q-67 -305 -70 -520l-240 -20q-6 56 -6 135q0 64 2 84q-102 -108 -213 -171t-217 -63q-99 0 -161 52t-62 153z M598 1237l307 346l193 -92l-393 -315z" />
<glyph unicode="&#xfb;" horiz-adv-x="1208" d="M86 180q0 87 29 223l137 631h262l-127 -577q-22 -102 -22 -185q0 -100 110 -100q53 0 119.5 43.5t114.5 95.5q27 28 42 65.5t29 104.5l123 553h262l-112 -504q-67 -305 -70 -520l-240 -20q-6 56 -6 135q0 64 2 84q-102 -108 -213 -171t-217 -63q-99 0 -161 52t-62 153z M422 1229l313 311h152l164 -328l-103 -55l-172 219l-268 -221z" />
<glyph unicode="&#xfc;" horiz-adv-x="1208" d="M86 180q0 87 29 223l137 631h262l-127 -577q-22 -102 -22 -185q0 -100 110 -100q53 0 119.5 43.5t114.5 95.5q27 28 42 65.5t29 104.5l123 553h262l-112 -504q-67 -305 -70 -520l-240 -20q-6 56 -6 135q0 64 2 84q-102 -108 -213 -171t-217 -63q-99 0 -161 52t-62 153z M432 1325q0 76 40.5 117t107.5 41q53 0 79.5 -28t26.5 -73q0 -69 -36 -113t-109 -44q-109 0 -109 100zM829 1325q0 76 41 117t109 41q53 0 78.5 -27.5t25.5 -73.5q0 -69 -35 -113t-110 -44q-54 0 -81.5 26.5t-27.5 73.5z" />
<glyph unicode="&#xfd;" horiz-adv-x="1085" d="M-147 -432l55 182q77 -10 98 -10q84 0 162 59q72 56 149 201h-47l-151 1024l276 20q70 -610 84 -788q32 64 73.5 138.5t78 138t127.5 220.5t168 291l248 -20l-582 -977q-99 -167 -168 -262t-129 -139q-115 -90 -289 -90q-94 0 -153 12zM547 1237l307 346l193 -92 l-394 -315z" />
<glyph unicode="&#xfe;" horiz-adv-x="1187" d="M-61 -432l434 1960h262l-158 -707q99 113 209 174.5t215 61.5q120 0 176 -66t56 -217q0 -94 -23 -198t-74 -210t-124 -190.5t-183 -138t-240 -53.5q-108 0 -192 24l-98 -440h-260zM344 199q0 -34 33 -49q56 -27 129 -27q101 0 164 63q85 82 137.5 240t52.5 293 q0 145 -112 145q-69 0 -149 -60t-124 -130q-52 -78 -74 -180l-43 -185q-14 -69 -14 -110z" />
<glyph unicode="&#xff;" horiz-adv-x="1085" d="M-147 -432l55 182q77 -10 98 -10q84 0 162 59q72 56 149 201h-47l-151 1024l276 20q70 -610 84 -788q32 64 73.5 138.5t78 138t127.5 220.5t168 291l248 -20l-582 -977q-99 -167 -168 -262t-129 -139q-115 -90 -289 -90q-94 0 -153 12zM375 1325q0 76 40 117t107 41 q53 0 80 -28t27 -73q0 -68 -36 -112.5t-110 -44.5q-108 0 -108 100zM772 1325q0 76 41 117t109 41q53 0 78.5 -27.5t25.5 -73.5q0 -69 -35 -113t-110 -44q-54 0 -81.5 26.5t-27.5 73.5z" />
<glyph unicode="&#x152;" horiz-adv-x="2041" d="M109 500q0 146 29.5 283t96 263.5t164 220.5t243 150t323.5 56q138 0 288 -27h842l-72 -195h-536l-88 -407h522l-39 -193h-524l-101 -456h678l-69 -195h-920q-164 -31 -287 -31q-265 0 -407.5 138t-142.5 393zM403 520q0 -180 88.5 -274t251.5 -94q124 0 240 38l231 1076 q-96 26 -274 26q-124 0 -228 -66.5t-170 -176t-102.5 -247t-36.5 -282.5z" />
<glyph unicode="&#x153;" horiz-adv-x="1771" d="M68 369q0 112 37 238.5t108 226.5q77 109 195.5 168t257.5 59q256 0 331 -176q164 174 408 174q156 0 248 -82.5t92 -233.5q0 -109 -19 -186l-673 -33q-13 -54 -13 -131q0 -117 61.5 -174t170.5 -57q175 0 342 92l55 -98q-243 -181 -467 -181q-252 0 -340 156 q-148 -154 -368 -154q-426 0 -426 392zM330 324q0 -112 46 -161.5t140 -49.5q136 0 207 151q37 82 68.5 231.5t31.5 229.5q0 193 -178 193q-61 0 -113.5 -35.5t-87.5 -102.5q-42 -80 -78 -224t-36 -232zM1069 639l434 45q8 36 8 82q0 149 -153 149q-91 0 -169.5 -65 t-119.5 -211z" />
<glyph unicode="&#x178;" horiz-adv-x="1343" d="M215 1438l301 18q166 -463 219 -653q162 224 506 653l281 -18l-707 -867l-121 -571h-278l121 571zM561 1671q0 75 41 116.5t107 41.5q53 0 79.5 -28.5t26.5 -74.5q0 -68 -35.5 -111.5t-109.5 -43.5q-109 0 -109 100zM979 1671q0 75 40.5 116.5t108.5 41.5q53 0 79 -28.5 t26 -74.5q0 -69 -35.5 -112t-110.5 -43q-54 0 -81 26.5t-27 73.5z" />
<glyph unicode="&#x2c6;" horiz-adv-x="430" d="M-180 1229l313 311h152l164 -328l-103 -55l-172 219l-268 -221z" />
<glyph unicode="&#x2dc;" horiz-adv-x="430" d="M-215 1257q112 220 244 220q28 0 56 -12.5t81 -45.5q58 -37 98 -37q33 0 60.5 24.5t64.5 78.5l92 -47q-62 -116 -116 -167.5t-121 -51.5q-38 0 -67.5 11t-72.5 40q-68 45 -100 45q-67 0 -127 -105z" />
<glyph unicode="&#x2000;" horiz-adv-x="969" />
<glyph unicode="&#x2001;" horiz-adv-x="1939" />
<glyph unicode="&#x2002;" horiz-adv-x="969" />
<glyph unicode="&#x2003;" horiz-adv-x="1939" />
<glyph unicode="&#x2004;" horiz-adv-x="646" />
<glyph unicode="&#x2005;" horiz-adv-x="484" />
<glyph unicode="&#x2006;" horiz-adv-x="323" />
<glyph unicode="&#x2007;" horiz-adv-x="323" />
<glyph unicode="&#x2008;" horiz-adv-x="242" />
<glyph unicode="&#x2009;" horiz-adv-x="387" />
<glyph unicode="&#x200a;" horiz-adv-x="107" />
<glyph unicode="&#x2010;" horiz-adv-x="741" d="M72 516l41 199h575l-41 -199h-575z" />
<glyph unicode="&#x2011;" horiz-adv-x="741" d="M72 516l41 199h575l-41 -199h-575z" />
<glyph unicode="&#x2012;" horiz-adv-x="741" d="M72 516l41 199h575l-41 -199h-575z" />
<glyph unicode="&#x2013;" horiz-adv-x="1097" d="M74 522l39 195h942l-41 -195h-940z" />
<glyph unicode="&#x2014;" horiz-adv-x="2021" d="M74 522l39 195h1865l-41 -195h-1863z" />
<glyph unicode="&#x2018;" horiz-adv-x="456" d="M182 948q33 158 125 305t189 246l106 -45q-71 -102 -114.5 -216.5t-79.5 -289.5h-226z" />
<glyph unicode="&#x2019;" horiz-adv-x="411" d="M131 973q73 105 117.5 220t79.5 288h223q-32 -160 -123 -307t-188 -246z" />
<glyph unicode="&#x201a;" horiz-adv-x="454" d="M-98 -211q72 105 116 219.5t78 288.5h226q-17 -83 -54 -169.5t-84 -158t-89.5 -125.5t-84.5 -98z" />
<glyph unicode="&#x201c;" horiz-adv-x="804" d="M182 948q33 158 125 305t189 246l106 -45q-71 -102 -114.5 -216.5t-79.5 -289.5h-226zM530 948q33 158 125 305t189 246l106 -45q-71 -102 -114.5 -216.5t-79.5 -289.5h-226z" />
<glyph unicode="&#x201d;" horiz-adv-x="759" d="M131 973q73 105 117.5 220t79.5 288h223q-32 -160 -123 -307t-188 -246zM481 973q71 105 115.5 220t79.5 288h223q-32 -160 -123 -307t-188 -246z" />
<glyph unicode="&#x201e;" horiz-adv-x="804" d="M-98 -211q72 105 116 219.5t78 288.5h226q-17 -83 -54 -169.5t-84 -158t-89.5 -125.5t-84.5 -98zM250 -211q72 105 116.5 219.5t79.5 288.5h224q-32 -158 -123.5 -305t-188.5 -246z" />
<glyph unicode="&#x2022;" horiz-adv-x="686" d="M70 532q0 88 25 153.5t69 103t98 55.5t119 18q105 0 170 -66t65 -169q0 -155 -76 -241.5t-231 -86.5q-112 0 -175.5 64.5t-63.5 168.5z" />
<glyph unicode="&#x2026;" horiz-adv-x="2168" d="M139 100q0 86 43 127t111 41q52 0 84.5 -34t32.5 -87q0 -77 -38.5 -120t-113.5 -43q-56 0 -87.5 32t-31.5 84zM856 100q0 86 43 127t111 41q52 0 84 -34t32 -87q0 -77 -38 -120t-113 -43q-56 0 -87.5 32t-31.5 84zM1577 100q0 86 43.5 127t112.5 41q51 0 83.5 -34 t32.5 -87q0 -77 -39 -120t-114 -43q-56 0 -87.5 32t-31.5 84z" />
<glyph unicode="&#x202f;" horiz-adv-x="387" />
<glyph unicode="&#x2039;" horiz-adv-x="645" d="M92 469l25 125l481 371l57 -74l-374 -361l221 -368l-80 -62z" />
<glyph unicode="&#x203a;" horiz-adv-x="645" d="M-16 176l376 359l-221 368l80 62l330 -369l-25 -123l-481 -371z" />
<glyph unicode="&#x205f;" horiz-adv-x="484" />
<glyph unicode="&#x20ac;" horiz-adv-x="1320" d="M135 496l29 127h143q5 62 27 165h-141l28 127h148q39 111 98.5 200.5t143.5 159.5t198 108t250 38q164 0 336 -45l-74 -188q-144 43 -297 43q-142 0 -240 -83.5t-153 -232.5h473l-29 -127h-481q-15 -80 -21 -165h474l-29 -127h-449q7 -330 293 -330q165 0 336 76l39 -158 q-113 -54 -238.5 -84.5t-218.5 -30.5q-105 0 -190.5 29.5t-151 89.5t-101.5 160t-36 233v15h-166z" />
<glyph unicode="&#x2122;" horiz-adv-x="1839" d="M217 1327l43 119h621l-25 -119h-233l-138 -651h-170l138 651h-236zM811 680l211 766h215q50 -396 57 -561q39 83 299 561h222l-115 -764l-166 -10q76 512 94 612q-68 -147 -319 -604h-138q-52 484 -61 602q-8 -31 -162 -608z" />
</font>
</defs>
</svg>
